<svg xmlns="http://www.w3.org/2000/svg" viewBox="0 0 40 40"><path fill="#dff0fe" d="M31.5 3.5H38.5V38.5H31.5z"/><path fill="#4788c7" d="M38,4v34h-6V4H38 M39,3h-8v36h8V3L39,3z"/><path fill="#dff0fe" d="M21.5 17.5H28.5V38.5H21.5z"/><path fill="#4788c7" d="M28,18v20h-6V18H28 M29,17h-8v22h8V17L29,17z"/><path fill="#dff0fe" d="M11.5 24.5H18.5V38.5H11.5z"/><path fill="#4788c7" d="M18,25v13h-6V25H18 M19,24h-8v15h8V24L19,24z"/><g><path fill="#dff0fe" d="M1.5 30.5H8.5V38.5H1.5z"/><path fill="#4788c7" d="M8,31v7H2v-7H8 M9,30H1v9h8V30L9,30z"/></g><g><path fill="#4788c7" d="M15.464,6.95L4.414,18C4.024,18.391,3.391,18.391,3,18l0,0c-0.391-0.391-0.391-1.024,0-1.414 l11.05-11.05L10.515,2H19v8.485L15.464,6.95z"/></g></svg>