<svg xmlns="http://www.w3.org/2000/svg" viewBox="0 0 48 48"><path fill="#eceff1" d="M24,4v40c11.046,0,20-8.954,20-20C44,12.954,35.046,4,24,4z"/><path fill="#33691e" d="M4,24c0,11.046,8.954,20,20,20V4C12.954,4,4,12.954,4,24z"/><path fill="#d21034" d="M30.734,20c-2.211-3.824-7.102-5.137-10.926-2.926c-3.828,2.207-5.137,7.102-2.93,10.926s7.102,5.137,10.926,2.926c1.215-0.699,2.227-1.711,2.93-2.926c-2.211,2.758-6.238,3.203-8.996,0.996c-2.758-2.211-3.203-6.238-0.996-8.996c2.211-2.758,6.238-3.203,8.996-0.996C30.105,19.301,30.437,19.633,30.734,20 M31.199,24.215L24,21.867L28.48,28v-7.57L24,26.559L31.199,24.215z"/></svg>