<svg xmlns="http://www.w3.org/2000/svg" viewBox="0 0 40 40"><path fill="#b6dcfe" d="M21,34.5c-8.547,0-15.5-6.953-15.5-15.5S12.453,3.5,21,3.5S36.5,10.453,36.5,19S29.547,34.5,21,34.5 z"/><path fill="#4788c7" d="M21,4c8.271,0,15,6.729,15,15s-6.729,15-15,15S6,27.271,6,19S12.729,4,21,4 M21,3 C12.163,3,5,10.163,5,19s7.163,16,16,16s16-7.163,16-16S29.837,3,21,3L21,3z"/><path fill="#b6dcfe" d="M18,37.5C9.453,37.5,2.5,30.547,2.5,22S9.453,6.5,18,6.5S33.5,13.453,33.5,22S26.547,37.5,18,37.5z"/><path fill="#4788c7" d="M18,7c8.271,0,15,6.729,15,15s-6.729,15-15,15S3,30.271,3,22S9.729,7,18,7 M18,6 C9.163,6,2,13.163,2,22s7.163,16,16,16s16-7.163,16-16S26.837,6,18,6L18,6z"/><g><path fill="#dff0fe" d="M18 10A12 12 0 1 0 18 34A12 12 0 1 0 18 10Z"/></g><path fill="#4788c7" d="M18.977,15c-0.341,0.245-1.986,1.254-3.977,2.025v1.697c1.404-0.419,2.645-0.916,3-1.17V29h2V15 H18.977z"/></svg>