<svg xmlns="http://www.w3.org/2000/svg" viewBox="0 0 40 40"><path fill="#98ccfd" d="M8,24.5c-0.827,0-1.5-0.673-1.5-1.5V4c0-0.827,0.673-1.5,1.5-1.5h29c0.827,0,1.5,0.673,1.5,1.5v19c0,0.827-0.673,1.5-1.5,1.5H8z"/><path fill="#4788c7" d="M37,3c0.551,0,1,0.449,1,1v19c0,0.551-0.449,1-1,1H8c-0.551,0-1-0.449-1-1V4c0-0.551,0.449-1,1-1H37 M37,2H8C6.895,2,6,2.895,6,4v19c0,1.105,0.895,2,2,2h29c1.105,0,2-0.895,2-2V4C39,2.895,38.105,2,37,2L37,2z"/><path fill="#fff" d="M9 12H36V14H9z"/><path fill="#4788c7" d="M6 6H39V10H6z"/><path fill="#b6dcfe" d="M3,37.5c-0.827,0-1.5-0.673-1.5-1.5V17c0-0.827,0.673-1.5,1.5-1.5h29c0.827,0,1.5,0.673,1.5,1.5v19c0,0.827-0.673,1.5-1.5,1.5H3z"/><path fill="#4788c7" d="M32,16c0.551,0,1,0.449,1,1v19c0,0.551-0.449,1-1,1H3c-0.551,0-1-0.449-1-1V17c0-0.551,0.449-1,1-1H32 M32,15H3c-1.105,0-2,0.895-2,2v19c0,1.105,0.895,2,2,2h29c1.105,0,2-0.895,2-2V17C34,15.895,33.105,15,32,15L32,15z"/><path fill="#dff0fe" d="M5 20H12V25H5z"/><path fill="#fff" d="M16 19H30V23H16z"/><path fill="#4788c7" d="M8.5 30h-3C5.225 30 5 29.775 5 29.5l0 0C5 29.225 5.225 29 5.5 29h3C8.775 29 9 29.225 9 29.5l0 0C9 29.775 8.775 30 8.5 30zM15.5 30h-3c-.275 0-.5-.225-.5-.5l0 0c0-.275.225-.5.5-.5h3c.275 0 .5.225.5.5l0 0C16 29.775 15.775 30 15.5 30zM22.5 30h-3c-.275 0-.5-.225-.5-.5l0 0c0-.275.225-.5.5-.5h3c.275 0 .5.225.5.5l0 0C23 29.775 22.775 30 22.5 30zM29.5 30h-3c-.275 0-.5-.225-.5-.5l0 0c0-.275.225-.5.5-.5h3c.275 0 .5.225.5.5l0 0C30 29.775 29.775 30 29.5 30zM19.5 34h-14C5.225 34 5 33.775 5 33.5l0 0C5 33.225 5.225 33 5.5 33h14c.275 0 .5.225.5.5l0 0C20 33.775 19.775 34 19.5 34z"/></svg>