<svg xmlns="http://www.w3.org/2000/svg" viewBox="0 0 40 40"><path fill="#b6dcfe" d="M1,37.5c-0.275,0-0.5-0.224-0.5-0.5V14c0-0.276,0.225-0.5,0.5-0.5h38c0.275,0,0.5,0.224,0.5,0.5v23 c0,0.276-0.225,0.5-0.5,0.5H1z"/><path fill="#4788c7" d="M39,14v23H1V14H39 M39,13H1c-0.552,0-1,0.448-1,1v23c0,0.552,0.448,1,1,1h38c0.552,0,1-0.448,1-1 V14C40,13.448,39.552,13,39,13L39,13z"/><path fill="#dff0fe" d="M37,16v19H3V16H37 M39,14H1v23h38V14L39,14z"/><path fill="#4788c7" d="M34 2H35V13H34zM31 2H32V13H31zM9 2H10V13H9zM27 2H29V13H27zM5 2H7V13H5zM22 2H25V13H22zM12 2H20V13H12zM34 16H35V32H34zM31 16H32V32H31zM9 16H10V32H9zM27 16H29V32H27zM5 16H7V32H5zM22 16H25V32H22z"/><g><path fill="#4788c7" d="M12 16H20V32H12z"/></g></svg>