<svg xmlns="http://www.w3.org/2000/svg" viewBox="0 0 40 40"><path fill="#b6dcfe" d="M18,38.5c-1.378,0-2.5-1.122-2.5-2.5v-8.5h5V36C20.5,37.378,19.378,38.5,18,38.5z"/><path fill="#4788c7" d="M20,28v8c0,1.103-0.897,2-2,2s-2-0.897-2-2v-8H20 M21,27h-6v9c0,1.657,1.343,3,3,3s3-1.343,3-3V27L21,27z"/><path fill="#b6dcfe" d="M23,37.5c-1.378,0-2.5-1.122-2.5-2.5v-8.5h5V35C25.5,36.378,24.378,37.5,23,37.5z"/><path fill="#4788c7" d="M25,27v8c0,1.103-0.897,2-2,2s-2-0.897-2-2v-8H25 M26,26h-6v9c0,1.657,1.343,3,3,3s3-1.343,3-3V26L26,26z"/><path fill="#b6dcfe" d="M28,35.5c-1.378,0-2.5-1.122-2.5-2.5V21.5h5V33C30.5,34.378,29.378,35.5,28,35.5z"/><path fill="#4788c7" d="M30,22v11c0,1.103-0.897,2-2,2s-2-0.897-2-2V22H30 M31,21h-6v12c0,1.657,1.343,3,3,3s3-1.343,3-3V21L31,21z"/><path fill="#98ccfd" d="M11.645 9.64H38.668V24.646H11.645z" transform="rotate(-60.638 25.157 17.143)"/><path fill="#4788c7" d="M25.436,2.363L37.638,9.24l-12.76,22.68l-12.202-6.877L25.436,2.363 M25.056,1L11.315,25.424l13.944,7.859L39,8.859L25.056,1L25.056,1z"/><path fill="#98ccfd" d="M11.442 28.201L20.107 2.633 34.366 7.43 25.701 32.998z"/><path fill="#4788c7" d="M20.42,3.266l13.311,4.478l-8.344,24.621l-13.311-4.478L20.42,3.266 M19.793,2l-8.986,26.515l15.207,5.116L35,7.116L19.793,2L19.793,2z"/><path fill="#fff" d="M24.449 13.254C23.937 13.082 23.416 13 22.903 13c-2.016 0-3.897 1.267-4.577 3.275-.853 2.519.504 5.251 3.032 6.101.513.173 1.034.254 1.546.254 2.016 0 3.897-1.267 4.577-3.275C28.335 16.837 26.977 14.105 24.449 13.254zM26.644 7.12c-.212-.071-.426-.105-.638-.105-.831 0-1.607.522-1.888 1.351-.352 1.039.208 2.165 1.25 2.516.212.071.426.105.638.105.831 0 1.607-.522 1.888-1.351C28.247 8.597 27.687 7.47 26.644 7.12z"/><path fill="#dff0fe" d="M24.438,23.252C23.852,22.435,22.931,22,21.997,22c-0.605,0-1.216,0.182-1.745,0.562l-7.975,5.23c-0.081,0.043-0.162,0.062-0.239,0.062c-0.385,0-0.673-0.475-0.378-0.826L14,24.25L16,16h-4.298c-0.454,0-0.895,0.155-1.249,0.438L1,23v16h8.198c1.165,0,2.293-0.407,3.19-1.15l11.36-10.412C25.095,26.473,25.404,24.599,24.438,23.252z"/><path fill="none" stroke="#4788c7" stroke-linecap="round" d="M1.5,23.262l9.237-6.413c0.292-0.232,0.625-0.349,0.964-0.349H15.5l-2,7.567l-2.222,2.639c-0.254,0.302-0.31,0.708-0.146,1.06c0.166,0.357,0.521,0.588,0.905,0.588c0.164,0,0.323-0.041,0.474-0.121l8.015-5.253c0.444-0.318,0.947-0.48,1.471-0.48c0.806,0,1.566,0.39,2.035,1.044c0.803,1.12,0.545,2.685-0.576,3.488L12.05,37.481c-0.787,0.651-1.806,1.019-2.852,1.019H1.5"/><path fill="#98ccfd" d="M15.05,16l-3.404,10.923l0.014,0.105c-0.354,0.421,0.131,1.021,0.617,0.764L15.01,26l1.809-10H15.05z"/><path fill="#4788c7" d="M15.05,16l-3.504,11.245c0,0.001,0.003,0.005,0.003,0.006c-0.08,0.376,0.324,0.756,0.728,0.542l0.183-0.12L16.097,16H15.05z"/></svg>