<svg xmlns="http://www.w3.org/2000/svg" viewBox="0 0 40 40"><path fill="#b6dcfe" d="M3,38.5c-0.827,0-1.5-0.673-1.5-1.5v-6L2.754,7.919C2.797,7.123,3.455,6.5,4.252,6.5h31.496c0.797,0,1.455,0.623,1.498,1.419l1.255,23.108L38.5,37c0,0.827-0.673,1.5-1.5,1.5H3z"/><path fill="#4788c7" d="M35.748,7c0.531,0,0.97,0.415,0.999,0.946L38,31.027V37c0,0.551-0.449,1-1,1H3c-0.551,0-1-0.449-1-1v-5.973L3.253,7.946C3.282,7.415,3.72,7,4.252,7H35.748 M35.748,6H4.252c-1.063,0-1.94,0.831-1.998,1.892L1,31v6c0,1.105,0.895,2,2,2h34c1.105,0,2-0.895,2-2v-6L37.746,7.892C37.688,6.831,36.811,6,35.748,6L35.748,6z"/><path fill="#98ccfd" d="M2,31L3.253,7.946C3.282,7.415,3.72,7,4.252,7h31.497c0.531,0,0.97,0.415,0.999,0.946L38,31H2z"/><path fill="#4788c7" d="M32,10v3h-4v-3H32"/><path fill="#b6dcfe" d="M23,10.5c-0.827,0-1.5-0.673-1.5-1.5V3c0-0.827,0.673-1.5,1.5-1.5h14c0.827,0,1.5,0.673,1.5,1.5v6c0,0.827-0.673,1.5-1.5,1.5H23z"/><path fill="#4788c7" d="M37,2c0.551,0,1,0.449,1,1v6c0,0.551-0.449,1-1,1H23c-0.551,0-1-0.449-1-1V3c0-0.551,0.449-1,1-1H37 M37,1H23c-1.105,0-2,0.895-2,2v6c0,1.105,0.895,2,2,2h14c1.105,0,2-0.895,2-2V3C39,1.895,38.105,1,37,1L37,1z"/><path fill="#dff0fe" d="M27,11h6v2.5c0,0.276-0.224,0.5-0.5,0.5h-5c-0.276,0-0.5-0.224-0.5-0.5V11z"/><path fill="#fff" d="M6 20H9V23H6zM12 20H15V23H12zM18 20H21V23H18zM24 20H27V23H24zM6 25H9V28H6zM12 25H15V28H12zM18 25H21V28H18zM24 25H27V28H24z"/><path fill="#dff0fe" d="M31 25H34V28H31z"/><path fill="#4788c7" d="M31 20H34V23H31zM20 33.572A1.357 1.357 0 1 0 20 36.286 1.357 1.357 0 1 0 20 33.572z"/><path fill="#fff" d="M6.5 1.5H18.5V16.5H6.5z"/><path fill="#4788c7" d="M18,2v14H7V2H18 M19,1H6v16h13V1L19,1z"/><path fill="#dff0fe" d="M7 14H18V16H7z"/><path fill="#4788c7" d="M18 14v2H7v-2H5.5C4.672 14 4 14.672 4 15.5l0 0C4 16.328 4.672 17 5.5 17h14c.828 0 1.5-.672 1.5-1.5l0 0c0-.828-.672-1.5-1.5-1.5H18zM35 7H36V8H35zM33 7H34V8H33zM31 7H32V8H31zM32.5 10L32.5 10c.275 0 .5.225.5.5v3c0 .275-.225.5-.5.5l0 0c-.275 0-.5-.225-.5-.5v-3C32 10.225 32.225 10 32.5 10zM27.5 10L27.5 10c.275 0 .5.225.5.5v3c0 .275-.225.5-.5.5l0 0c-.275 0-.5-.225-.5-.5v-3C27 10.225 27.225 10 27.5 10z"/></svg>