<svg xmlns="http://www.w3.org/2000/svg" viewBox="0 0 40 40"><path fill="none" stroke="#4788c7" stroke-linecap="round" d="M38.368,11.682L34.9,24.395 c-0.177,0.65-0.772,1.105-1.447,1.105H12.911"/><path fill="none" stroke="#4788c7" stroke-linecap="round" d="M3,1.5h2.119 c2.093,0,3.882,1.505,4.241,3.567l4.498,25.866c0.359,2.062,2.148,3.567,4.241,3.567H35.5"/><path fill="#dff0fe" d="M3 1.5A1.5 1.5 0 1 0 3 4.5A1.5 1.5 0 1 0 3 1.5Z"/><path fill="#4788c7" d="M3,2c0.551,0,1,0.449,1,1S3.551,4,3,4S2,3.551,2,3S2.449,2,3,2 M3,1C1.895,1,1,1.895,1,3 s0.895,2,2,2s2-0.895,2-2S4.105,1,3,1L3,1z"/><path fill="#98ccfd" d="M31.5 34.5A2 2 0 1 0 31.5 38.5A2 2 0 1 0 31.5 34.5Z"/><path fill="#4788c7" d="M31.5,35c0.827,0,1.5,0.673,1.5,1.5S32.327,38,31.5,38S30,37.327,30,36.5S30.673,35,31.5,35 M31.5,34c-1.381,0-2.5,1.119-2.5,2.5s1.119,2.5,2.5,2.5s2.5-1.119,2.5-2.5S32.881,34,31.5,34L31.5,34z"/><g><path fill="#98ccfd" d="M18.5 34.5A2 2 0 1 0 18.5 38.5A2 2 0 1 0 18.5 34.5Z"/><path fill="#4788c7" d="M18.5,35c0.827,0,1.5,0.673,1.5,1.5S19.327,38,18.5,38S17,37.327,17,36.5S17.673,35,18.5,35 M18.5,34c-1.381,0-2.5,1.119-2.5,2.5s1.119,2.5,2.5,2.5s2.5-1.119,2.5-2.5S19.881,34,18.5,34L18.5,34z"/></g><g><path fill="#98ccfd" d="M26.5 12.5L15.5 12.5 15.5 9.5 26.5 9.5 26.5 5.207 32.293 11 26.5 16.793z"/><path fill="#4788c7" d="M27,6.414L31.586,11L27,15.586V13v-1h-1H16v-2h10h1V9V6.414 M26,4v5H15v4h11v5l7-7L26,4L26,4z"/></g></svg>