<svg xmlns="http://www.w3.org/2000/svg" viewBox="0 0 40 40"><path fill="#4788c7" d="M36.5,34h-33C2.119,34,1,35.119,1,36.5v0C1,37.881,2.119,39,3.5,39h33c1.381,0,2.5-1.119,2.5-2.5v0 C39,35.119,37.881,34,36.5,34z"/><path fill="#fff" d="M4.5 37.5L4.5 2.309 6 1.559 8 2.559 10 1.559 12 2.559 14 1.559 16 2.559 18 1.559 20 2.559 22 1.559 24 2.559 26 1.559 28 2.559 30 1.559 32 2.559 34 1.559 35.5 2.309 35.5 37.5z"/><path fill="#4788c7" d="M34,2.118l1,0.5V37H5V2.618l1-0.5l1.553,0.776L8,3.118l0.447-0.224L10,2.118l1.553,0.776L12,3.118 l0.447-0.224L14,2.118l1.553,0.776L16,3.118l0.447-0.224L18,2.118l1.553,0.776L20,3.118l0.447-0.224L22,2.118l1.553,0.776L24,3.118 l0.447-0.224L26,2.118l1.553,0.776L28,3.118l0.447-0.224L30,2.118l1.553,0.776L32,3.118l0.447-0.224L34,2.118 M34,1l-2,1l-2-1l-2,1 l-2-1l-2,1l-2-1l-2,1l-2-1l-2,1l-2-1l-2,1l-2-1L8,2L6,1L4,2v36h32V2L34,1L34,1z"/><path fill="#b6dcfe" d="M5 35H35V38H5z"/><path fill="none" stroke="#4788c7" stroke-linecap="round" d="M8.5 8.5L22.5 8.5M29.5 8.5L31.5 8.5M8.5 12.5L20.5 12.5M29.5 12.5L31.5 12.5M8.5 16.5L22.5 16.5M29.5 16.5L31.5 16.5M8.5 20.5L20.5 20.5M29.5 20.5L31.5 20.5M21.5 30.5L31.5 30.5"/><path fill="#4788c7" d="M31.5 25A.5.5 0 1 0 31.5 26 .5.5 0 1 0 31.5 25zM33.5 25A.5.5 0 1 0 33.5 26 .5.5 0 1 0 33.5 25zM29.5 25A.5.5 0 1 0 29.5 26 .5.5 0 1 0 29.5 25zM27.5 25A.5.5 0 1 0 27.5 26 .5.5 0 1 0 27.5 25zM25.5 25A.5.5 0 1 0 25.5 26 .5.5 0 1 0 25.5 25zM23.5 25A.5.5 0 1 0 23.5 26 .5.5 0 1 0 23.5 25zM21.5 25A.5.5 0 1 0 21.5 26 .5.5 0 1 0 21.5 25zM19.5 25A.5.5 0 1 0 19.5 26 .5.5 0 1 0 19.5 25zM17.5 25A.5.5 0 1 0 17.5 26 .5.5 0 1 0 17.5 25zM15.5 25A.5.5 0 1 0 15.5 26 .5.5 0 1 0 15.5 25zM13.5 25A.5.5 0 1 0 13.5 26 .5.5 0 1 0 13.5 25zM11.5 25A.5.5 0 1 0 11.5 26 .5.5 0 1 0 11.5 25zM9.5 25A.5.5 0 1 0 9.5 26 .5.5 0 1 0 9.5 25zM7.5 25A.5.5 0 1 0 7.5 26 .5.5 0 1 0 7.5 25z"/></svg>