<svg xmlns="http://www.w3.org/2000/svg" viewBox="0 0 40 40"><path fill="#dff0fe" d="M16.197 19.5L1.5 5.783 1.5 1.5 38.5 1.5 38.5 5.783 23.803 19.5z"/><path fill="#4788c7" d="M38,2v3.565L23.606,19h-7.212L2,5.565V2H38 M39,1H1v5l15,14h8L39,6V1L39,1z"/><path fill="#dff0fe" d="M16.5 32.75L16.5 19.5 23.5 19.5 23.5 38z"/><path fill="#4788c7" d="M23,20v17l-6-4.5V20H23 M24,19h-8v14l8,6V19L24,19z"/><path fill="#98ccfd" d="M31,39.5c-4.687,0-8.5-3.813-8.5-8.5s3.813-8.5,8.5-8.5s8.5,3.813,8.5,8.5S35.687,39.5,31,39.5z"/><path fill="#4788c7" d="M31,23c4.411,0,8,3.589,8,8s-3.589,8-8,8s-8-3.589-8-8S26.589,23,31,23 M31,22 c-4.971,0-9,4.029-9,9s4.029,9,9,9s9-4.029,9-9S35.971,22,31,22L31,22z"/><path fill="none" stroke="#fff" stroke-width="2" d="M27.5 34.5L34.5 27.5M27.5 27.5L34.5 34.5"/></svg>