<svg xmlns="http://www.w3.org/2000/svg" viewBox="0 0 40 40"><path fill="#dff0fe" d="M8,27.5c-4.136,0-7.5-3.364-7.5-7.5c0-3.435,2.328-6.421,5.661-7.263l0.406-0.103l-0.03-0.418 C6.516,11.934,6.5,11.719,6.5,11.5c0-5.514,4.486-10,10-10c4.683,0,8.687,3.188,9.736,7.751l0.111,0.481l0.482-0.104 C27.22,9.543,27.614,9.5,28,9.5c2.723,0,5.005,1.954,5.426,4.645l0.058,0.37l0.371,0.049C37.073,14.987,39.5,17.754,39.5,21 c0,3.584-2.916,6.5-6.5,6.5H8z"/><path fill="#4788c7" d="M16.5,2c4.448,0,8.252,3.028,9.249,7.363l0.221,0.962l0.965-0.209C27.292,10.039,27.65,10,28,10 c2.475,0,4.549,1.776,4.932,4.222l0.116,0.739l0.742,0.098C36.76,15.45,39,18.004,39,21c0,3.308-2.692,6-6,6H8c-3.86,0-7-3.14-7-7 c0-3.205,2.172-5.992,5.283-6.778l0.812-0.205l-0.059-0.835L7.03,12.1C7.015,11.901,7,11.702,7,11.5C7,6.262,11.262,2,16.5,2 M16.5,1C10.701,1,6,5.701,6,11.5c0,0.254,0.02,0.503,0.038,0.752C2.57,13.128,0,16.26,0,20c0,4.418,3.582,8,8,8h25 c3.866,0,7-3.134,7-7c0-3.553-2.65-6.481-6.08-6.933C33.471,11.198,30.996,9,28,9c-0.438,0-0.865,0.05-1.276,0.139 C25.651,4.479,21.486,1,16.5,1L16.5,1z"/></svg>