<svg xmlns="http://www.w3.org/2000/svg" viewBox="0 0 40 40"><path fill="none" stroke="#4788c7" d="M36 4L30 11 23 7 17 14 10 10 4 15"/><path fill="#98ccfd" d="M4 13.5A1.5 1.5 0 1 0 4 16.5A1.5 1.5 0 1 0 4 13.5Z"/><path fill="#4788c7" d="M4,14c0.551,0,1,0.449,1,1s-0.449,1-1,1s-1-0.449-1-1S3.449,14,4,14 M4,13c-1.105,0-2,0.895-2,2 s0.895,2,2,2s2-0.895,2-2S5.105,13,4,13L4,13z"/><path fill="#98ccfd" d="M10 8.5A1.5 1.5 0 1 0 10 11.5A1.5 1.5 0 1 0 10 8.5Z"/><path fill="#4788c7" d="M10,9c0.551,0,1,0.449,1,1s-0.449,1-1,1s-1-0.449-1-1S9.449,9,10,9 M10,8c-1.105,0-2,0.895-2,2 s0.895,2,2,2s2-0.895,2-2S11.105,8,10,8L10,8z"/><path fill="#98ccfd" d="M17 12.5A1.5 1.5 0 1 0 17 15.5A1.5 1.5 0 1 0 17 12.5Z"/><path fill="#4788c7" d="M17,13c0.551,0,1,0.449,1,1s-0.449,1-1,1s-1-0.449-1-1S16.449,13,17,13 M17,12 c-1.105,0-2,0.895-2,2s0.895,2,2,2s2-0.895,2-2S18.105,12,17,12L17,12z"/><path fill="#98ccfd" d="M23 5.5A1.5 1.5 0 1 0 23 8.5A1.5 1.5 0 1 0 23 5.5Z"/><path fill="#4788c7" d="M23,6c0.551,0,1,0.449,1,1s-0.449,1-1,1s-1-0.449-1-1S22.449,6,23,6 M23,5c-1.105,0-2,0.895-2,2 s0.895,2,2,2s2-0.895,2-2S24.105,5,23,5L23,5z"/><path fill="#98ccfd" d="M30 9.5A1.5 1.5 0 1 0 30 12.5A1.5 1.5 0 1 0 30 9.5Z"/><path fill="#4788c7" d="M30,10c0.551,0,1,0.449,1,1s-0.449,1-1,1s-1-0.449-1-1S29.449,10,30,10 M30,9c-1.105,0-2,0.895-2,2 s0.895,2,2,2s2-0.895,2-2S31.105,9,30,9L30,9z"/><path fill="#98ccfd" d="M36 2.5A1.5 1.5 0 1 0 36 5.5A1.5 1.5 0 1 0 36 2.5Z"/><path fill="#4788c7" d="M36,3c0.551,0,1,0.449,1,1s-0.449,1-1,1s-1-0.449-1-1S35.449,3,36,3 M36,2c-1.105,0-2,0.895-2,2 s0.895,2,2,2s2-0.895,2-2S37.105,2,36,2L36,2z"/><g><path fill="#dff0fe" d="M33.5 15.5H37.5V38.5H33.5z"/><path fill="#4788c7" d="M37,16v22h-3V16H37 M38,15h-5v24h5V15L38,15z"/></g><g><path fill="#dff0fe" d="M21.5 20.5H25.5V38.5H21.5z"/><path fill="#4788c7" d="M25,21v17h-3V21H25 M26,20h-5v19h5V20L26,20z"/></g><g><path fill="#dff0fe" d="M15.5 27.5H19.5V38.5H15.5z"/><path fill="#4788c7" d="M19,28v10h-3V28H19 M20,27h-5v12h5V27L20,27z"/></g><g><path fill="#dff0fe" d="M9.5 24.5H13.5V38.5H9.5z"/><path fill="#4788c7" d="M13,25v13h-3V25H13 M14,24H9v15h5V24L14,24z"/></g><g><path fill="#dff0fe" d="M3.5 29.5H7.5V38.5H3.5z"/><path fill="#4788c7" d="M7,30v8H4v-8H7 M8,29H3v10h5V29L8,29z"/></g><g><path fill="#dff0fe" d="M27.5 23.5H31.5V38.5H27.5z"/><path fill="#4788c7" d="M31,24v14h-3V24H31 M32,23h-5v16h5V23L32,23z"/></g></svg>