<svg xmlns="http://www.w3.org/2000/svg" viewBox="0 0 40 40"><path fill="#dff0fe" d="M20,38.5c-7.859,0-14.5-2.748-14.5-6V7h29v20.416c-0.859-0.59-1.906-0.916-3-0.916 c-2.757,0-5,2.019-5,4.5s2.243,4.5,5,4.5c0.402,0,0.799-0.043,1.181-0.126C30.168,37.258,25.358,38.5,20,38.5z"/><path fill="#4788c7" d="M34,7.5v19.055C33.235,26.194,32.381,26,31.5,26c-3.033,0-5.5,2.243-5.5,5 c0,2.512,2.048,4.597,4.705,4.948C28.257,37.13,24.556,38,20,38c-8.25,0-14-2.899-14-5.5v-25H34 M35,6.5H5c0,1.29,0,24.71,0,26 c0,3.59,6.716,6.5,15,6.5c7.239,0,13.279-2.222,14.688-5.178C33.874,34.549,32.746,35,31.5,35c-2.485,0-4.5-1.791-4.5-4 c0-2.209,2.015-4,4.5-4c1.422,0,2.675,0.598,3.5,1.514C35,21.448,35,7.488,35,6.5L35,6.5z"/><path fill="#dff0fe" d="M20,11.5c-8.674,0-14.5-2.585-14.5-5s5.826-5,14.5-5s14.5,2.585,14.5,5S28.674,11.5,20,11.5z"/><path fill="#4788c7" d="M20,2c8.674,0,14,2.621,14,4.5S28.674,11,20,11S6,8.379,6,6.5S11.326,2,20,2 M20,1 C11.716,1,5,3.462,5,6.5S11.716,12,20,12s15-2.462,15-5.5S28.284,1,20,1L20,1z"/><path fill="#dff0fe" stroke="#4788c7" d="M34.5 15.183c0 2.936-6.492 5.317-14.5 5.317S5.5 18.12 5.5 15.183M5.5 23.217c0 3.47 6.492 6.283 14.5 6.283 2.14 0 4.171-.201 6-.561 2.781-1.814 4.406-2.689 6-2.194 1.578-1.006 2.5-2.22 2.5-3.528"/><g><path fill="#98ccfd" d="M29.924,39.502l-0.36-2.158l-0.307-0.085c-1.056-0.294-2.026-0.854-2.806-1.618l-0.228-0.224 l-2.047,0.767l-1.076-1.863l1.69-1.393l-0.079-0.309c-0.141-0.546-0.212-1.09-0.212-1.617s0.071-1.071,0.212-1.617l0.079-0.309 l-1.69-1.393l1.076-1.863l2.047,0.767l0.228-0.224c0.779-0.765,1.75-1.324,2.806-1.618l0.307-0.085l0.36-2.158h2.152l0.36,2.158 l0.307,0.085c1.056,0.294,2.026,0.854,2.806,1.618l0.228,0.224l2.047-0.767l1.076,1.863l-1.69,1.393l0.079,0.309 c0.141,0.546,0.212,1.09,0.212,1.617s-0.071,1.071-0.212,1.617l-0.079,0.309l1.69,1.393l-1.076,1.863l-2.047-0.767l-0.228,0.224 c-0.779,0.765-1.75,1.324-2.806,1.618l-0.307,0.085l-0.36,2.158H29.924z M31,27.502c-1.93,0-3.5,1.57-3.5,3.5s1.57,3.5,3.5,3.5 s3.5-1.57,3.5-3.5S32.93,27.502,31,27.502z"/><path fill="#4788c7" d="M31.653,23.002l0.238,1.426l0.105,0.628l0.614,0.171c0.975,0.271,1.871,0.787,2.59,1.493 l0.455,0.446l0.596-0.223l1.352-0.506l0.653,1.131l-1.118,0.92l-0.491,0.404l0.158,0.616C36.934,30.015,37,30.518,37,31.002 c0,0.484-0.066,0.987-0.196,1.494l-0.158,0.616l0.491,0.404l1.118,0.92l-0.653,1.131l-1.352-0.506l-0.596-0.223l-0.455,0.446 c-0.719,0.706-1.615,1.222-2.59,1.493l-0.614,0.171l-0.105,0.628l-0.238,1.426h-1.306l-0.238-1.426l-0.105-0.628l-0.614-0.171 c-0.975-0.271-1.871-0.787-2.59-1.493l-0.455-0.446l-0.596,0.223l-1.352,0.506l-0.653-1.131l1.118-0.92l0.491-0.404l-0.158-0.616 C25.066,31.989,25,31.486,25,31.002s0.066-0.987,0.196-1.494l0.158-0.616l-0.491-0.404l-1.118-0.92l0.653-1.131l1.352,0.506 l0.596,0.223l0.455-0.446c0.719-0.705,1.615-1.222,2.59-1.493l0.614-0.171l0.105-0.628l0.238-1.426H31.653 M31,35.002 c2.206,0,4-1.794,4-4s-1.794-4-4-4s-4,1.794-4,4S28.794,35.002,31,35.002 M32.5,22.002h-3l-0.377,2.262 c-1.155,0.321-2.19,0.926-3.022,1.742l-2.145-0.804l-1.5,2.598l1.772,1.459C24.084,29.818,24,30.399,24,31.002 s0.084,1.184,0.227,1.742l-1.772,1.458l1.5,2.598l2.145-0.804c0.832,0.816,1.867,1.421,3.022,1.742l0.377,2.262h3l0.377-2.262 c1.155-0.321,2.19-0.926,3.022-1.742l2.145,0.804l1.5-2.598l-1.772-1.458C37.916,32.186,38,31.605,38,31.002 s-0.084-1.184-0.227-1.742l1.772-1.459l-1.5-2.598l-2.145,0.804c-0.832-0.816-1.867-1.421-3.022-1.742L32.5,22.002L32.5,22.002z M31,34.002c-1.657,0-3-1.343-3-3s1.343-3,3-3s3,1.343,3,3S32.657,34.002,31,34.002L31,34.002z"/></g></svg>