<svg xmlns="http://www.w3.org/2000/svg" viewBox="0 0 40 40"><path fill="#98ccfd" d="M21.5,32.5V11c0-1.378,1.122-2.5,2.5-2.5h10c0.863,0,1.643,0.511,1.987,1.302l3.112,7.169 c0.266,0.612,0.401,1.261,0.401,1.928V30c0,1.378-1.122,2.5-2.5,2.5H21.5z"/><path fill="#4788c7" d="M34,9c0.664,0,1.264,0.393,1.528,1.001l3.112,7.17C38.879,17.72,39,18.301,39,18.9V30 c0,1.103-0.897,2-2,2H22V11c0-1.103,0.897-2,2-2H34 M34,8H24c-1.657,0-3,1.343-3,3v22h16c1.657,0,3-1.343,3-3V18.9 c0-0.732-0.151-1.456-0.443-2.128l-3.112-7.169C36.022,8.63,35.061,8,34,8L34,8z"/><path fill="#b6dcfe" d="M31.5 28.5A4 4 0 1 0 31.5 36.5A4 4 0 1 0 31.5 28.5Z"/><path fill="#4788c7" d="M31.5,29c1.93,0,3.5,1.57,3.5,3.5S33.43,36,31.5,36S28,34.43,28,32.5S29.57,29,31.5,29 M31.5,28 c-2.485,0-4.5,2.015-4.5,4.5s2.015,4.5,4.5,4.5s4.5-2.015,4.5-4.5S33.985,28,31.5,28L31.5,28z"/><path fill="#4788c7" d="M31.5 31A1.5 1.5 0 1 0 31.5 34A1.5 1.5 0 1 0 31.5 31Z"/><path fill="#dff0fe" d="M0.5 3.5H21.5V32.5H0.5z"/><path fill="#4788c7" d="M21,4v28H1V4H21 M22,3H0v30h22V3L22,3z"/><path fill="#b6dcfe" d="M9.5 28.5A4 4 0 1 0 9.5 36.5A4 4 0 1 0 9.5 28.5Z"/><path fill="#4788c7" d="M9.5,29c1.93,0,3.5,1.57,3.5,3.5S11.43,36,9.5,36S6,34.43,6,32.5S7.57,29,9.5,29 M9.5,28 C7.015,28,5,30.015,5,32.5S7.015,37,9.5,37s4.5-2.015,4.5-4.5S11.985,28,9.5,28L9.5,28z"/><path fill="#4788c7" d="M9.5 31A1.5 1.5 0 1 0 9.5 34A1.5 1.5 0 1 0 9.5 31Z"/><path fill="#fff" d="M36 24H39V27H36z"/><g><path fill="#fff" d="M11 7.5A7.5 7.5 0 1 0 11 22.5A7.5 7.5 0 1 0 11 7.5Z"/><path fill="#4788c7" d="M11,8c3.86,0,7,3.14,7,7s-3.14,7-7,7s-7-3.14-7-7S7.14,8,11,8 M11,7c-4.418,0-8,3.582-8,8 s3.582,8,8,8s8-3.582,8-8S15.418,7,11,7L11,7z"/></g><path fill="none" stroke="#4788c7" stroke-linecap="round" stroke-linejoin="round" d="M13.462 11.308L11 15 13.462 17.462"/><g><path fill="#4788c7" d="M11 14A1 1 0 1 0 11 16A1 1 0 1 0 11 14Z"/></g><g><path fill="#fff" d="M38.64,17.171L35.962,11H29c-0.552,0-1,0.448-1,1v9c0,0.552,0.448,1,1,1h10v-3.1 C39,18.302,38.879,17.72,38.64,17.171z"/></g></svg>