<svg xmlns="http://www.w3.org/2000/svg" viewBox="0 0 40 40"><path fill="#fff" d="M6.5 37.5L6.5 2.5 24.793 2.5 33.5 11.207 33.5 37.5z"/><path fill="#4788c7" d="M24.586,3L33,11.414V37H7V3H24.586 M25,2H6v36h28V11L25,2L25,2z"/><path fill="#dff0fe" d="M24.5 11.5L24.5 2.5 24.793 2.5 33.5 11.207 33.5 11.5z"/><path fill="#4788c7" d="M25,3.414L32.586,11H25V3.414 M25,2h-1v10h10v-1L25,2L25,2z"/><path fill="#fff" d="M20 22H34V38H20z"/><path fill="#4788c7" d="M33.5 19L33.5 19c.275 0 .5.225.5.5v3c0 .275-.225.5-.5.5l0 0c-.275 0-.5-.225-.5-.5v-3C33 19.225 33.225 19 33.5 19zM18.5 38h2c.275 0 .5-.225.5-.5l0 0c0-.275-.225-.5-.5-.5h-2c-.275 0-.5.225-.5.5l0 0C18 37.775 18.225 38 18.5 38z"/><path fill="#dff0fe" d="M24.265 34.674L25.931 33.008 29.216 35.869 27.346 37.739 22.78 39.223z"/><path fill="#4788c7" d="M25.954,33.691l2.529,2.203L27.077,37.3l-3.516,1.143l1.142-3.501L25.954,33.691 M25.907,32.324 l-2.081,2.081L22,40.002l5.614-1.825l2.334-2.334L25.907,32.324L25.907,32.324z"/><path fill="#4788c7" d="M23.061 36.758L22.002 40.004 25.258 38.946z"/><g><path fill="#b6dcfe" d="M34.906,24.021l0.885-0.884c0.41-0.41,0.955-0.636,1.536-0.636c0.58,0,1.126,0.226,1.536,0.636 c0.848,0.847,0.848,2.226,0,3.073l-0.884,0.884L34.906,24.021z"/><path fill="#4788c7" d="M37.327,23c0.447,0,0.867,0.174,1.183,0.49c0.316,0.316,0.49,0.736,0.49,1.183 s-0.174,0.867-0.49,1.183l-0.53,0.53l-2.366-2.366l0.53-0.53C36.46,23.174,36.88,23,37.327,23 M37.327,22 c-0.684,0-1.368,0.261-1.89,0.783L34.2,24.02l3.78,3.78l1.237-1.237c1.044-1.044,1.044-2.736,0-3.78 C38.695,22.261,38.011,22,37.327,22L37.327,22z"/></g><g><path fill="#b6dcfe" d="M27.893,37.191c-0.034-0.055-0.073-0.108-0.118-0.161c-0.221-0.258-0.522-0.424-0.9-0.495 c-0.176-0.793-0.803-1.211-1.384-1.36c-0.103-0.474-0.373-0.809-0.713-1.015l8.516-8.525l3.073,3.073L27.893,37.191z"/><path fill="#4788c7" d="M33.293,26.342l2.366,2.366l-7.75,7.759c-0.161-0.131-0.368-0.254-0.631-0.342 c-0.255-0.704-0.813-1.132-1.383-1.346c-0.091-0.248-0.223-0.463-0.385-0.645L33.293,26.342 M33.293,24.927l-9.466,9.478 c0,0,0.005,0,0.015,0c0.137,0,1.194,0.038,1.194,1.205c0,0,1.388,0.043,1.388,1.386c1.38,0,1.191,1.182,1.191,1.182l9.459-9.47 L33.293,24.927L33.293,24.927z"/></g><g><path fill="#dff0fe" d="M33.891 24.31H37.144999999999996V28.656H33.891z" transform="rotate(-45.001 35.517 26.483)"/><path fill="#4788c7" d="M35.132,24.503l2.366,2.366l-1.594,1.594l-2.366-2.366L35.132,24.503 M35.132,23.089l-3.008,3.008 l3.78,3.78l3.008-3.008L35.132,23.089L35.132,23.089z"/></g></svg>