<svg xmlns="http://www.w3.org/2000/svg" viewBox="0 0 40 40"><path fill="#dff0fe" d="M2.5 37.5L2.5 7.207 7.207 2.5 32.793 2.5 37.5 7.207 37.5 37.5z"/><path fill="#4788c7" d="M32.586,3L37,7.414L37,37H3L3,7.414L7.414,3H32.586 M33,2H7L2,7l0,31h36l0-31L33,2L33,2z"/><path fill="#98ccfd" d="M32.5 7.5L32.5 2.5 32.793 2.5 37.5 7.207 37.5 7.5z"/><path fill="#4788c7" d="M33,3.414L36.586,7H33V3.414 M33,2h-1v6h6l0-1L33,2L33,2z"/><path fill="#98ccfd" d="M2.5 7.5L2.5 7.207 7.207 2.5 7.5 2.5 7.5 7.5z"/><path fill="#4788c7" d="M7,3.414V7H3.414L7,3.414 M8,2H7L2,7l0,1h6V2L8,2z"/><path fill="none" stroke="#4788c7" d="M2 7.5L38 7.5"/><g><path fill="#4788c7" d="M24,12h-4h-4c-0.552,0-1,0.448-1,1c0,0.552,0.448,1,1,1h4h4c0.552,0,1-0.448,1-1 C25,12.448,24.552,12,24,12z"/></g><g><path fill="#b6dcfe" d="M7.5 2.5H32.5V7.5H7.5z"/><path fill="#4788c7" d="M32,3v4H8V3H32 M33,2H7v6h26V2L33,2z"/></g></svg>