<svg xmlns="http://www.w3.org/2000/svg" viewBox="0 0 40 40"><path fill="#98ccfd" d="M21.5,20.5v-3.167l-0.357-0.106c-0.975-0.291-1.883-0.82-2.627-1.53l-0.273-0.26l-2.711,1.591 l-1.479-2.562l2.718-1.595l-0.086-0.36C16.562,11.998,16.5,11.489,16.5,11c0-0.506,0.066-1.032,0.197-1.563l0.091-0.369 l-2.732-1.542l1.479-2.562l2.752,1.553l0.268-0.251c0.738-0.693,1.632-1.209,2.587-1.494L21.5,4.667V1.5h3v3.167l0.357,0.106 c0.972,0.289,1.88,0.817,2.624,1.527l0.271,0.258l2.756-1.59l1.479,2.562l-2.76,1.592l0.087,0.363 C29.438,9.998,29.5,10.508,29.5,11c0,0.491-0.063,1.001-0.186,1.517l-0.087,0.363l2.76,1.59l-1.479,2.562l-2.757-1.588 l-0.271,0.258c-0.744,0.709-1.651,1.236-2.623,1.526L24.5,17.333V20.5H21.5z M23,7.5c-1.93,0-3.5,1.57-3.5,3.5s1.57,3.5,3.5,3.5 s3.5-1.57,3.5-3.5S24.93,7.5,23,7.5z"/><path fill="#4788c7" d="M24,2v2.294v0.746l0.715,0.213c0.898,0.267,1.735,0.755,2.422,1.41l0.542,0.517l0.648-0.374 l1.999-1.153l0.979,1.696l-2.003,1.155l-0.646,0.373l0.174,0.726C28.942,10.077,29,10.548,29,11c0,0.453-0.058,0.924-0.172,1.4 l-0.174,0.726l0.647,0.373l2.003,1.154l-0.979,1.696l-2.001-1.152l-0.648-0.373l-0.541,0.516c-0.687,0.654-1.524,1.142-2.421,1.409 L24,16.961v0.746V20h-2v-2.294v-0.746l-0.715-0.213c-0.899-0.268-1.738-0.756-2.425-1.413l-0.546-0.521l-0.651,0.382l-1.951,1.145 l-0.979-1.696l1.971-1.157l0.638-0.375l-0.172-0.72C17.057,11.92,17,11.451,17,11c0-0.466,0.062-0.952,0.183-1.443l0.182-0.737 l-0.662-0.373l-1.962-1.107l0.979-1.696l2.001,1.129l0.64,0.361l0.536-0.503c0.681-0.64,1.507-1.116,2.387-1.379L22,5.039V4.294V2 H24 M23,15c2.206,0,4-1.794,4-4s-1.794-4-4-4s-4,1.794-4,4S20.794,15,23,15 M25,1h-4v3.294c-1.056,0.315-2.004,0.873-2.787,1.608 L15.35,4.286l-1.979,3.428l2.841,1.604C16.079,9.857,16,10.419,16,11c0,0.561,0.073,1.104,0.198,1.627l-2.827,1.659l1.979,3.428 l2.82-1.655c0.79,0.755,1.755,1.327,2.83,1.648V21h4v-3.294c1.073-0.32,2.036-0.891,2.825-1.643l2.866,1.651l1.979-3.428 l-2.87-1.653C29.926,12.108,30,11.563,30,11c0-0.563-0.073-1.107-0.199-1.631l2.869-1.655l-1.979-3.428l-2.865,1.652 C27.037,5.185,26.074,4.614,25,4.294V1L25,1z M23,14c-1.657,0-3-1.343-3-3s1.343-3,3-3s3,1.343,3,3S24.657,14,23,14L23,14z"/><path fill="#dff0fe" d="M8.5,35.5v-3.167l-0.357-0.106c-0.975-0.291-1.883-0.82-2.627-1.53l-0.273-0.26l-2.711,1.591 l-1.479-2.562l2.718-1.595l-0.086-0.36C3.562,26.998,3.5,26.489,3.5,26c0-0.506,0.066-1.032,0.197-1.563l0.091-0.369l-2.732-1.542 l1.479-2.562l2.752,1.553l0.268-0.251c0.738-0.693,1.632-1.209,2.587-1.494L8.5,19.667V16.5h3v3.167l0.357,0.106 c0.972,0.289,1.88,0.817,2.624,1.527l0.271,0.258l2.756-1.59l1.479,2.562l-2.76,1.592l0.087,0.363 C16.438,24.998,16.5,25.508,16.5,26c0,0.491-0.063,1.001-0.186,1.517l-0.087,0.363l2.76,1.59l-1.479,2.562l-2.757-1.588 l-0.271,0.258c-0.744,0.709-1.651,1.236-2.623,1.526L11.5,32.333V35.5H8.5z M10,22.5c-1.93,0-3.5,1.57-3.5,3.5s1.57,3.5,3.5,3.5 s3.5-1.57,3.5-3.5S11.93,22.5,10,22.5z"/><path fill="#4788c7" d="M11,17v2.294v0.746l0.715,0.213c0.898,0.267,1.735,0.755,2.422,1.41l0.542,0.517l0.648-0.374 l1.999-1.153l0.979,1.696l-2.003,1.155l-0.646,0.373l0.174,0.726C15.942,25.077,16,25.548,16,26c0,0.453-0.058,0.924-0.172,1.4 l-0.174,0.726l0.647,0.373l2.003,1.154l-0.979,1.696l-2.001-1.152l-0.648-0.373l-0.541,0.516 c-0.687,0.654-1.524,1.142-2.421,1.409L11,31.961v0.746V35H9v-2.294v-0.746l-0.715-0.213c-0.899-0.268-1.738-0.756-2.425-1.413 l-0.546-0.521l-0.651,0.382l-1.951,1.145l-0.979-1.696l1.971-1.157l0.638-0.375l-0.172-0.72C4.057,26.92,4,26.451,4,26 c0-0.466,0.062-0.952,0.183-1.443l0.182-0.737l-0.662-0.373l-1.962-1.107l0.979-1.696l2.001,1.129l0.64,0.361l0.536-0.503 c0.681-0.64,1.507-1.116,2.387-1.379L9,20.039v-0.746V17H11 M10,30c2.206,0,4-1.794,4-4s-1.794-4-4-4s-4,1.794-4,4S7.794,30,10,30 M12,16H8v3.294c-1.056,0.315-2.004,0.873-2.787,1.608L2.35,19.286l-1.979,3.428l2.841,1.604C3.079,24.857,3,25.419,3,26 c0,0.561,0.073,1.104,0.198,1.627l-2.827,1.659l1.979,3.428l2.82-1.655c0.79,0.755,1.755,1.327,2.83,1.648V36h4v-3.294 c1.073-0.32,2.036-0.891,2.825-1.643l2.866,1.651l1.979-3.428l-2.87-1.653C16.926,27.108,17,26.563,17,26 c0-0.563-0.073-1.107-0.199-1.631l2.869-1.655l-1.979-3.428l-2.865,1.652c-0.79-0.753-1.753-1.325-2.827-1.645V16L12,16z M10,29 c-1.657,0-3-1.343-3-3s1.343-3,3-3s3,1.343,3,3S11.657,29,10,29L10,29z"/><g><path fill="#b6dcfe" d="M28.5,38.5v-3.167l-0.357-0.106c-0.975-0.291-1.883-0.82-2.627-1.53l-0.273-0.26l-2.711,1.591 l-1.479-2.562l2.718-1.595l-0.086-0.36C23.562,29.998,23.5,29.489,23.5,29c0-0.506,0.066-1.032,0.197-1.563l0.091-0.369 l-2.732-1.542l1.479-2.562l2.752,1.553l0.268-0.251c0.738-0.693,1.632-1.209,2.587-1.494l0.357-0.106V19.5h3v3.167l0.357,0.106 c0.972,0.289,1.88,0.817,2.624,1.527l0.271,0.258l2.756-1.59l1.479,2.562l-2.76,1.592l0.087,0.363 C36.438,27.998,36.5,28.508,36.5,29c0,0.491-0.063,1.001-0.186,1.517l-0.087,0.363l2.76,1.59l-1.479,2.562l-2.757-1.588 l-0.271,0.258c-0.744,0.709-1.651,1.236-2.623,1.526L31.5,35.333V38.5H28.5z M30,25.5c-1.93,0-3.5,1.57-3.5,3.5s1.57,3.5,3.5,3.5 s3.5-1.57,3.5-3.5S31.93,25.5,30,25.5z"/><path fill="#4788c7" d="M31,20v2.294v0.746l0.715,0.213c0.898,0.267,1.735,0.755,2.422,1.41l0.542,0.517l0.648-0.374 l1.999-1.153l0.979,1.696l-2.003,1.155l-0.646,0.373l0.174,0.726C35.942,28.077,36,28.548,36,29c0,0.453-0.058,0.924-0.172,1.4 l-0.174,0.726l0.647,0.373l2.003,1.154l-0.979,1.696l-2.001-1.152l-0.648-0.373l-0.541,0.516 c-0.687,0.654-1.524,1.142-2.421,1.409L31,34.961v0.746V38h-2v-2.294v-0.746l-0.715-0.213c-0.899-0.268-1.738-0.756-2.425-1.413 l-0.546-0.521l-0.651,0.382l-1.951,1.145l-0.979-1.696l1.971-1.157l0.638-0.375l-0.172-0.72C24.057,29.92,24,29.451,24,29 c0-0.466,0.062-0.952,0.183-1.443l0.182-0.737l-0.662-0.373l-1.962-1.107l0.979-1.696l2.001,1.129l0.64,0.361l0.536-0.503 c0.681-0.64,1.507-1.116,2.387-1.379L29,23.039v-0.746V20H31 M30,33c2.206,0,4-1.794,4-4s-1.794-4-4-4s-4,1.794-4,4 S27.794,33,30,33 M32,19h-4v3.294c-1.056,0.315-2.004,0.873-2.787,1.608l-2.863-1.616l-1.979,3.428l2.841,1.604 C23.079,27.857,23,28.419,23,29c0,0.561,0.073,1.104,0.198,1.627l-2.827,1.659l1.979,3.428l2.82-1.655 c0.79,0.755,1.755,1.327,2.83,1.648V39h4v-3.294c1.073-0.32,2.036-0.891,2.825-1.643l2.866,1.651l1.979-3.428l-2.87-1.653 C36.926,30.108,37,29.563,37,29c0-0.563-0.073-1.107-0.199-1.631l2.869-1.655l-1.979-3.428l-2.865,1.652 c-0.79-0.753-1.753-1.325-2.827-1.645V19L32,19z M30,32c-1.657,0-3-1.343-3-3s1.343-3,3-3s3,1.343,3,3S31.657,32,30,32L30,32z"/></g></svg>