<svg xmlns="http://www.w3.org/2000/svg" viewBox="0 0 40 40"><path fill="#98ccfd" d="M4,32.5c-1.379,0-2.5-1.122-2.5-2.5V10c0-1.378,1.121-2.5,2.5-2.5h32c1.379,0,2.5,1.122,2.5,2.5v20c0,1.378-1.121,2.5-2.5,2.5H4z"/><path fill="#4788c7" d="M36,8c1.103,0,2,0.897,2,2v20c0,1.103-0.897,2-2,2H4c-1.103,0-2-0.897-2-2V10c0-1.103,0.897-2,2-2H36 M36,7H4c-1.657,0-3,1.343-3,3v20c0,1.657,1.343,3,3,3h32c1.657,0,3-1.343,3-3V10C39,8.343,37.657,7,36,7L36,7z"/><path fill="#dff0fe" d="M17,20c0-2.662,1.163-5.047,3-6.695C18.407,11.876,16.308,11,14,11c-4.971,0-9,4.029-9,9s4.029,9,9,9c2.308,0,4.407-0.876,6-2.305C18.163,25.047,17,22.662,17,20z"/><path fill="#fff" d="M26,11c-2.308,0-4.407,0.876-6,2.305c1.837,1.648,3,4.033,3,6.695s-1.163,5.047-3,6.695C21.593,28.124,23.692,29,26,29c4.971,0,9-4.029,9-9S30.971,11,26,11z"/><path fill="#b6dcfe" d="M23,20c0-2.662-1.163-5.047-3-6.695c-1.837,1.648-3,4.033-3,6.695s1.163,5.047,3,6.695C21.837,25.047,23,22.662,23,20z"/></svg>