<svg xmlns="http://www.w3.org/2000/svg" viewBox="0 0 40 40"><path fill="#dff0fe" d="M20,38.5c-11.421,0-18.5-1.505-18.5-9C1.5,21.569,13.084,8.286,20,8.286S38.5,21.569,38.5,29.5C38.5,36.995,31.421,38.5,20,38.5z"/><path fill="#4788c7" d="M20,8.786c6.561,0,18,13.164,18,20.714c0,5.248-3.011,8.5-18,8.5C8.887,38,2,36.578,2,29.5C2,21.95,13.439,8.786,20,8.786 M20,7.786c-7.156,0-19,13.469-19,21.714S9.294,39,20,39s19-1.255,19-9.5S27.156,7.786,20,7.786L20,7.786z"/><path fill="#dff0fe" d="M14.684,9.5c-0.545-0.266-3.346-1.732-3.655-3.907C12.298,5.312,16.299,4.5,20,4.5s7.702,0.812,8.972,1.093c-0.31,2.175-3.11,3.641-3.655,3.907H14.684z"/><path fill="#4788c7" d="M20,5c3.257,0,6.757,0.639,8.364,0.974C27.865,7.41,26.113,8.549,25.204,9H14.796c-0.91-0.452-2.662-1.591-3.161-3.027C13.241,5.639,16.738,5,20,5 M20,4c-4.565,0-9.5,1.2-9.5,1.2c0,2.985,4.071,4.8,4.071,4.8h10.857c0,0,4.071-1.815,4.071-4.8C29.5,5.2,24.565,4,20,4L20,4z"/><path fill="#dff0fe" d="M17.588,9.5L13.9,2.516C14.735,2.169,16.764,1.5,20,1.5s5.265,0.669,6.1,1.016L22.412,9.5H17.588z"/><path fill="#4788c7" d="M20,2c2.615,0,4.41,0.446,5.393,0.783L22.111,9h-4.223l-3.281-6.217C15.592,2.446,17.386,2,20,2 M20,1c-4.565,0-6.786,1.286-6.786,1.286L17.286,10h5.429l4.071-7.714C26.786,2.286,24.565,1,20,1L20,1z"/><path fill="none" stroke="#4788c7" stroke-linecap="round" stroke-linejoin="round" d="M25.786 9.5H15.691c0 0-3.155 3.009-3.155 11.536M15.718 9.5c0 0-4.469 2.195-6.254 8.821"/><path fill="none" stroke="#4788c7" stroke-width="2" d="M23 22v-.394C23 20.167 21.833 19 20.394 19h-.789C18.167 19 17 20.167 17 21.606l0 0c0 .871.435 1.685 1.16 2.168l3.68 2.453C22.565 26.71 23 27.523 23 28.394l0 0C23 29.833 21.833 31 20.394 31h-.789C18.167 31 17 29.833 17 28.394V28M20 19L20 16M20 34L20 31"/></svg>