<svg xmlns="http://www.w3.org/2000/svg" viewBox="0 0 40 40"><path fill="#98ccfd" d="M20,38.372c-0.163,0-0.317-0.055-0.444-0.158l-3.417-2.798l-4.335,0.887 c-0.051,0.012-0.098,0.017-0.145,0.017c-0.276,0-0.526-0.169-0.638-0.43l-1.728-4.066l-4.246-1.225 C4.731,30.507,4.52,30.2,4.546,29.87l0.36-4.405l-3.191-3.06c-0.239-0.229-0.284-0.598-0.107-0.877l2.368-3.733l-1.406-4.192 c-0.104-0.313,0.028-0.66,0.315-0.825l3.83-2.209l0.704-4.362C7.472,5.879,7.75,5.632,8.08,5.619l4.417-0.175l2.651-3.537 c0.131-0.174,0.341-0.279,0.56-0.279c0.104,0,0.204,0.023,0.298,0.068l3.993,1.899l3.992-1.899 c0.095-0.045,0.195-0.068,0.299-0.068c0.219,0,0.429,0.104,0.561,0.28l2.65,3.536l4.417,0.175c0.33,0.013,0.609,0.26,0.664,0.588 l0.703,4.36l3.831,2.209c0.286,0.164,0.418,0.513,0.314,0.827l-1.404,4.19l2.366,3.733c0.177,0.28,0.132,0.649-0.108,0.878 l-3.19,3.06l0.36,4.406c0.026,0.329-0.185,0.636-0.503,0.728l-4.246,1.225l-1.727,4.068c-0.109,0.256-0.366,0.428-0.639,0.428 c-0.047,0-0.094-0.006-0.141-0.016l-4.337-0.888l-3.42,2.799C20.316,38.317,20.163,38.372,20,38.372z"/><path fill="#4788c7" d="M24.289,2.128c0.063,0,0.123,0.03,0.16,0.079l2.509,3.347l0.285,0.381l0.475,0.019l4.178,0.165 c0.095,0.004,0.175,0.076,0.19,0.166l0.667,4.128l0.076,0.469l0.412,0.238l3.625,2.09c0.082,0.047,0.119,0.147,0.09,0.234 l-1.329,3.966l-0.151,0.451l0.255,0.402l2.238,3.531c0.05,0.08,0.038,0.185-0.031,0.251l-3.019,2.894l-0.343,0.329l0.039,0.474 l0.34,4.169c0.008,0.095-0.051,0.18-0.142,0.207l-4.018,1.158l-0.457,0.132l-0.186,0.438l-1.633,3.848 c-0.034,0.08-0.106,0.119-0.203,0.119c-0.006,0-0.013,0-0.02-0.001l-4.1-0.84l-0.466-0.095l-0.368,0.301l-3.235,2.648 c-0.037,0.03-0.079,0.045-0.126,0.045s-0.09-0.015-0.126-0.045l-3.235-2.648l-0.368-0.301l-0.466,0.095l-4.146,0.846 c-0.074,0-0.146-0.051-0.177-0.123l-1.634-3.849l-0.186-0.438l-0.457-0.132l-4.015-1.158c-0.091-0.027-0.152-0.114-0.144-0.208 l0.34-4.169l0.039-0.474L5.08,24.939l-3.02-2.896c-0.067-0.064-0.08-0.168-0.03-0.247l2.24-3.533l0.255-0.402L4.374,17.41 l-1.33-3.965c-0.03-0.089,0.008-0.188,0.09-0.235l3.624-2.09l0.412-0.237l0.076-0.469l0.667-4.128 C7.928,6.19,8.005,6.122,8.1,6.118l4.179-0.165l0.475-0.019l0.285-0.381l2.506-3.344c0.039-0.051,0.099-0.081,0.163-0.081 c0.029,0,0.056,0.006,0.084,0.019l3.777,1.797l0.43,0.204l0.43-0.204l3.781-1.799C24.235,2.134,24.262,2.128,24.289,2.128 M24.289,1.128c-0.174,0-0.349,0.038-0.513,0.117l-3.777,1.797l-3.777-1.797c-0.165-0.079-0.34-0.116-0.513-0.116 c-0.368,0-0.727,0.17-0.961,0.479L12.24,4.954L8.06,5.119C7.491,5.142,7.017,5.562,6.926,6.126l-0.667,4.128l-3.624,2.09 c-0.493,0.284-0.72,0.877-0.539,1.418l1.33,3.966l-2.24,3.533c-0.305,0.481-0.229,1.112,0.184,1.506l3.019,2.894l-0.34,4.169 c-0.046,0.569,0.315,1.09,0.861,1.249l4.018,1.158l1.634,3.849c0.192,0.447,0.628,0.733,1.098,0.733 c0.081,0,0.164-0.009,0.246-0.026l4.101-0.84l3.235,2.648c0.221,0.181,0.489,0.271,0.759,0.271c0.27,0,0.538-0.09,0.759-0.271 l3.236-2.648l4.1,0.84c0.082,0.017,0.164,0.026,0.244,0.026c0.47,0,0.908-0.284,1.099-0.732l1.634-3.849l4.018-1.158 c0.548-0.159,0.908-0.68,0.861-1.249l-0.34-4.169l3.019-2.894c0.412-0.394,0.488-1.025,0.184-1.507l-2.239-3.533l1.329-3.966 c0.179-0.541-0.046-1.134-0.539-1.418l-3.624-2.09l-0.667-4.128c-0.093-0.563-0.568-0.983-1.137-1.006l-4.179-0.165L25.25,1.607 C25.017,1.298,24.657,1.128,24.289,1.128L24.289,1.128z"/><path fill="#fff" d="M13.784 24h-1.45l-3.821-5.88c-.097-.149-.177-.303-.24-.463H8.238c.03.171.045.537.045 1.099V24H7v-8h1.545l3.693 5.741c.156.238.257.402.301.491h.022c-.037-.212-.056-.571-.056-1.077V16h1.278V24zM20.491 24H16v-8h4.312v1.127h-2.985v2.265h2.75v1.121h-2.75v2.365h3.163V24zM32.789 16l-2.192 8h-1.501l-1.523-5.596c-.063-.238-.102-.498-.117-.781h-.022c-.019.264-.063.521-.134.77L25.771 24h-1.534L22 16h1.456l1.45 5.858c.06.245.097.502.112.77h.028c.015-.19.067-.446.156-.77L26.842 16h1.367l1.517 5.902c.052.201.091.439.117.714h.022c.011-.186.054-.431.128-.736L31.417 16H32.789z"/></svg>