<svg xmlns="http://www.w3.org/2000/svg" viewBox="0 0 40 40"><path fill="#b6dcfe" d="M24,30.5c-7.995,0-14.5-6.505-14.5-14.5S16.005,1.5,24,1.5S38.5,8.005,38.5,16S31.995,30.5,24,30.5z"/><path fill="#4788c7" d="M24,2c7.72,0,14,6.28,14,14s-6.28,14-14,14s-14-6.28-14-14S16.28,2,24,2 M24,1 C15.716,1,9,7.716,9,16s6.716,15,15,15s15-6.716,15-15S32.284,1,24,1L24,1z"/><path fill="#dff0fe" d="M24 5A11 11 0 1 0 24 27A11 11 0 1 0 24 5Z"/><path fill="#b6dcfe" d="M17,38.5C8.453,38.5,1.5,31.547,1.5,23S8.453,7.5,17,7.5S32.5,14.453,32.5,23S25.547,38.5,17,38.5z"/><path fill="#4788c7" d="M17,8c8.271,0,15,6.729,15,15s-6.729,15-15,15S2,31.271,2,23S8.729,8,17,8 M17,7 C8.163,7,1,14.163,1,23s7.163,16,16,16s16-7.163,16-16S25.837,7,17,7L17,7z"/><path fill="#dff0fe" d="M17 11A12 12 0 1 0 17 35A12 12 0 1 0 17 11Z"/><g><path fill="#4788c7" d="M13.447,29.189v-2.057c0.867,0.584,1.746,0.876,2.638,0.876c0.898,0,1.62-0.229,2.168-0.687 c0.547-0.458,0.821-1.068,0.821-1.831c0-0.75-0.278-1.334-0.835-1.752c-0.556-0.418-1.354-0.627-2.394-0.627 c-0.357,0-1.079,0.037-2.168,0.111l0.47-6.955h6.512v1.826h-4.732l-0.221,3.311c0.424-0.025,0.809-0.037,1.153-0.037 c1.402,0,2.486,0.36,3.251,1.079s1.148,1.703,1.148,2.952c0,1.31-0.438,2.36-1.314,3.15c-0.876,0.79-2.08,1.185-3.611,1.185 C15.043,29.733,14.08,29.552,13.447,29.189z"/></g><path fill="none" stroke="#4788c7" stroke-linecap="round" stroke-width="2" d="M3 3L37 37"/></svg>