<svg xmlns="http://www.w3.org/2000/svg" viewBox="0 0 40 40"><path fill="#fff" d="M17.207 29.5L10.5 29.5 10.5 22.793 1.92 14.213 38.197 1.803 25.787 38.08z"/><path fill="#4788c7" d="M37.394,2.606L25.573,37.159l-7.866-7.866L17.414,29H17h-6v-6v-0.414l-0.293-0.293l-7.866-7.866 L37.394,2.606 M39,1L1,14l9,9v7h7l9,9L39,1L39,1z"/><path fill="#dff0fe" d="M11.5 28.5L11.5 22.847 31.788 8.212 17.153 28.5z"/><path fill="#dff0fe" d="M29.575,10.425L16.897,28H12v-4.897L29.575,10.425 M34,6L11,22.591V23v6h6h0.409L34,6L34,6z"/><path fill="#b6dcfe" d="M11 22.591L11 23 11 29 34 6z"/></svg>