<svg xmlns="http://www.w3.org/2000/svg" viewBox="0 0 40 40"><path fill="#b6dcfe" d="M10.5,27.5v-23H33c0.827,0,1.5,0.673,1.5,1.5v20c0,0.827-0.673,1.5-1.5,1.5H10.5z"/><path fill="#4788c7" d="M33,5c0.551,0,1,0.449,1,1v20c0,0.551-0.449,1-1,1H11V5H33 M33,4H10v24h23c1.105,0,2-0.895,2-2V6 C35,4.895,34.105,4,33,4L33,4z"/><path fill="#dff0fe" d="M11.5,38.5c-1.103,0-2-0.897-2-2v-7h19v7c0,1.103-0.897,2-2,2H11.5z"/><path fill="#4788c7" d="M28,30v6.5c0,0.827-0.673,1.5-1.5,1.5h-15c-0.827,0-1.5-0.673-1.5-1.5V30H28 M28.5,29h-19 C9.224,29,9,29.224,9,29.5v7c0,1.381,1.119,2.5,2.5,2.5h15c1.381,0,2.5-1.119,2.5-2.5v-7C29,29.224,28.776,29,28.5,29L28.5,29z"/><path fill="#4788c7" d="M18.5 32.5H28.5V35.5H18.5z" transform="rotate(90 23.5 34)"/><path fill="#98ccfd" d="M9,30.5c-1.379,0-2.5-1.121-2.5-2.5V4c0-1.379,1.121-2.5,2.5-2.5h20c1.379,0,2.5,1.121,2.5,2.5v24 c0,1.379-1.121,2.5-2.5,2.5H9z"/><path fill="#4788c7" d="M29,2c1.103,0,2,0.897,2,2v24c0,1.103-0.897,2-2,2H9c-1.103,0-2-0.897-2-2V4c0-1.103,0.897-2,2-2 H29 M29,1H9C7.343,1,6,2.343,6,4v24c0,1.657,1.343,3,3,3h20c1.657,0,3-1.343,3-3V4C32,2.343,30.657,1,29,1L29,1z"/><path fill="#dff0fe" d="M10.5 5.5H27.5V10.5H10.5z"/><path fill="#4788c7" d="M27,6v4H11V6H27 M28,5H10v6h18V5L28,5z"/><path fill="#fff" d="M10 13H12V15H10zM14 13H16V15H14zM18 13H20V15H18zM10 17H12V19H10zM14 17H16V19H14zM18 17H20V19H18zM10 21H12V23H10zM14 21H16V23H14zM18 21H20V23H18zM10 25H12V27H10zM14 25H16V27H14zM18 25H20V27H18zM22 13H24V15H22zM22 17H24V19H22zM22 21H24V23H22zM22 25H24V27H22z"/><path fill="#b6dcfe" d="M26 13H28V15H26z"/><path fill="#dff0fe" d="M26 17H28V19H26z"/><path fill="#fff" d="M26 21H28V23H26zM26 25H28V27H26z"/></svg>