<svg xmlns="http://www.w3.org/2000/svg" viewBox="0 0 40 40"><path fill="#dff0fe" d="M17.519,38.475c-0.592,0-1.147-0.23-1.565-0.648L2.148,24.022c-0.863-0.863-0.863-2.269,0-3.132L20.539,2.524C21.2,1.864,22.078,1.5,23.013,1.5H35c1.93,0,3.5,1.57,3.5,3.5v12.008c0,0.937-0.365,1.816-1.028,2.478l-18.388,18.34C18.666,38.245,18.11,38.475,17.519,38.475z M33,5c-1.103,0-2,0.897-2,2s0.897,2,2,2s2-0.897,2-2S34.102,5,33,5z"/><path fill="#4788c7" d="M35,2c1.654,0,3,1.346,3,3v12.008c0,0.803-0.313,1.557-0.881,2.124L18.731,37.473c-0.324,0.324-0.754,0.502-1.212,0.502s-0.888-0.178-1.212-0.502L2.502,23.669c-0.668-0.668-0.668-1.756,0-2.424L20.893,2.877C21.459,2.312,22.212,2,23.013,2H35 M33,10c1.655,0,3-1.346,3-3s-1.345-3-3-3c-1.655,0-3,1.346-3,3S31.345,10,33,10 M35,1H23.013c-1.06,0-2.077,0.421-2.827,1.17L1.795,20.537c-1.06,1.06-1.06,2.779,0,3.839L15.599,38.18c0.53,0.53,1.225,0.795,1.919,0.795c0.695,0,1.389-0.265,1.919-0.795l18.387-18.34C38.577,19.09,39,18.071,39,17.008V5C39,2.791,37.209,1,35,1L35,1z M33,9c-1.104,0-2-0.896-2-2s0.896-2,2-2c1.104,0,2,0.896,2,2C35,8.105,34.104,9,33,9L33,9z"/></svg>