<svg xmlns="http://www.w3.org/2000/svg" viewBox="0 0 40 40"><path fill="#98ccfd" d="M17.519,38.475c-0.592,0-1.147-0.23-1.565-0.648L2.148,24.022c-0.863-0.863-0.863-2.269,0-3.132 L20.539,2.524C21.2,1.864,22.078,1.5,23.013,1.5H35c1.93,0,3.5,1.57,3.5,3.5v12.008c0,0.937-0.365,1.816-1.028,2.478 l-18.388,18.34C18.666,38.245,18.11,38.475,17.519,38.475z M33,4.5c-1.379,0-2.5,1.122-2.5,2.5s1.121,2.5,2.5,2.5 s2.5-1.122,2.5-2.5S34.379,4.5,33,4.5z"/><path fill="#4788c7" d="M35,2c1.654,0,3,1.346,3,3v12.008c0,0.803-0.313,1.557-0.881,2.124L18.731,37.473 c-0.324,0.324-0.754,0.502-1.212,0.502c-0.458,0-0.888-0.178-1.212-0.502L2.502,23.669c-0.668-0.668-0.668-1.756,0-2.424 L20.893,2.877C21.459,2.312,22.212,2,23.013,2H35 M33,10c1.654,0,3-1.346,3-3c0-1.654-1.346-3-3-3c-1.654,0-3,1.346-3,3 C30,8.654,31.346,10,33,10 M35,1H23.013c-1.06,0-2.077,0.421-2.827,1.17L1.795,20.537c-1.06,1.06-1.06,2.779,0,3.839L15.599,38.18 c0.53,0.53,1.225,0.795,1.919,0.795c0.695,0,1.389-0.265,1.919-0.795l18.387-18.34C38.577,19.09,39,18.071,39,17.008V5 C39,2.791,37.209,1,35,1L35,1z M33,9c-1.105,0-2-0.896-2-2c0-1.105,0.895-2,2-2s2,0.895,2,2C35,8.104,34.105,9,33,9L33,9z"/><g><path fill="#fff" d="M15.111 17.034H25.111V19.034H15.111z" transform="rotate(45.001 20.112 18.034)"/><path fill="#fff" d="M12.283 19.863H22.283V21.863H12.283z" transform="rotate(45.001 17.283 20.863)"/><path fill="#fff" d="M20.048,27.997l-1.23-0.421c-0.613-0.299-1.142-0.662-1.536-1.056 c-1.058-1.058-2.828-2.828,1.414-7.071c2.617-2.617,5.339-3.146,7.103-1.382c0.437,0.437,0.825,1,1.128,1.639l0.457,0.954 l2.249-2.249c-0.431-0.908-1.005-1.757-1.713-2.465c-2.743-2.743-7.221-2.743-11.346,1.382c-4.007,4.007-4.883,7.844-1.414,11.314 c0.696,0.696,1.574,1.277,2.524,1.718L20.048,27.997z"/></g></svg>