<svg xmlns="http://www.w3.org/2000/svg" viewBox="0 0 40 40"><path fill="#dff0fe" d="M3.5 1.5H31.5V35.5H3.5z"/><path fill="#4788c7" d="M31,2v33H4V2H31 M32,1H3v35h29V1L32,1z"/><path fill="#fff" d="M6.5 4.5H34.5V38.5H6.5z"/><path fill="#4788c7" d="M34,5v33H7V5H34 M35,4H6v35h29V4L35,4z"/><path fill="none" stroke="#4788c7" stroke-linecap="round" d="M24.5 11.5L29.5 11.5M24.5 15.5L29.5 15.5M24.5 19.5L29.5 19.5M12.5 23.5L24.5 23.5M12.5 27.5L24.5 27.5M12.5 31.5L24.5 31.5"/><path fill="#98ccfd" d="M17 8A3 3 0 1 0 17 14 3 3 0 1 0 17 8zM17 15c-2.761 0-5 2.239-5 5h10C22 17.239 19.761 15 17 15z"/><path fill="#b6dcfe" d="M27.5 24.5H39.5V39.5H27.5z"/><path fill="#4788c7" d="M39,25v14H28V25H39 M40,24H27v16h13V24L40,24z"/><path fill="none" stroke="#fff" stroke-width="2" d="M31 39L31 25"/><path fill="none" stroke="#4788c7" d="M27 34.5L40 34.5M27 29.5L40 29.5"/></svg>