<svg xmlns="http://www.w3.org/2000/svg" viewBox="0 0 40 40"><path fill="#b6dcfe" d="M5.5 38.5L5.5 4.5 22.793 4.5 31.5 13.207 31.5 38.5z"/><path fill="#4788c7" d="M22.586,5L31,13.414V38H6V5H22.586 M23,4H5v35h27V13L23,4L23,4z"/><path fill="#fff" d="M8.5 35.5L8.5 1.5 25.793 1.5 34.5 10.207 34.5 35.5z"/><path fill="#4788c7" d="M25.586,2L34,10.414V35H9V2H25.586 M26,1H8v35h27V10L26,1L26,1z"/><path fill="#dff0fe" d="M25.5 10.5L25.5 1.5 25.793 1.5 34.5 10.207 34.5 10.5z"/><path fill="#4788c7" d="M26 2.414L33.586 10H26V2.414M26 1h-1v10h10v-1L26 1 26 1zM30 21L30 16 25 16z"/><path fill="none" stroke="#4788c7" stroke-linecap="round" stroke-width="2" d="M28 18L22.4 23.6 18.5 19.4 14 24"/></svg>