<svg xmlns="http://www.w3.org/2000/svg" viewBox="0 0 40 40"><path fill="#98ccfd" d="M32 2.5A4.5 4.5 0 1 0 32 11.5A4.5 4.5 0 1 0 32 2.5Z"/><path fill="#4788c7" d="M32,3c2.206,0,4,1.794,4,4s-1.794,4-4,4s-4-1.794-4-4S29.794,3,32,3 M32,2c-2.76,0-5,2.24-5,5c0,2.762,2.24,5,5,5c2.761,0,5-2.238,5-5C37,4.24,34.76,2,32,2L32,2z"/><path fill="#4788c7" d="M32.978 9L32.086 9 32.086 5.767 31.022 6.095 31.022 5.376 32.881 4.71 32.978 4.71z"/><path fill="#b6dcfe" d="M25.5 8.5A7 7 0 1 0 25.5 22.5A7 7 0 1 0 25.5 8.5Z"/><path fill="#4788c7" d="M25.5,9c3.584,0,6.5,2.916,6.5,6.5S29.084,22,25.5,22S19,19.084,19,15.5S21.916,9,25.5,9 M25.5,8c-4.136,0-7.5,3.364-7.5,7.5s3.364,7.5,7.5,7.5s7.5-3.364,7.5-7.5S29.636,8,25.5,8L25.5,8z"/><path fill="#4788c7" d="M27 19L25.437 19 25.437 13.339 23.572 13.924 23.572 12.648 26.833 11.46 27 11.46z"/><path fill="#b6dcfe" stroke="#4788c7" d="M19.478,28.407l9.575-3.936c0.358-0.148,0.73-0.218,1.096-0.218c1.152,0,2.246,0.696,2.689,1.854c0.521,1.364-0.269,3.046-1.586,3.678l-11.684,5.868"/><path fill="#b6dcfe" stroke="#4788c7" d="M22.478,29.407l9.575-3.936c0.358-0.148,0.73-0.218,1.096-0.218c1.152,0,2.246,0.696,2.689,1.854c0.521,1.364-0.269,3.046-1.586,3.678l-11.684,5.868"/><path fill="#dff0fe" d="M6.725,20.568C7.747,20.188,8.816,20,9.883,20c1.455,0,2.907,0.35,4.224,1.043l9.54,5.015c1.428,0.751,1.987,2.511,1.254,3.947l0.577,0.402l9.575-3.936c0.358-0.148,0.73-0.218,1.096-0.218c1.152,0,2.246,0.696,2.689,1.854c0.521,1.364-0.269,3.046-1.586,3.678l-11.684,5.868C25.107,37.884,24.605,38,24.101,38c-0.464,0-0.93-0.099-1.363-0.298L7.792,30.841l-6.793,2.715v-1.077v-8.72v-1.066L6.725,20.568z"/><path fill="none" stroke="#4788c7" stroke-linecap="round" d="M1.5,32.817l6.307-2.521l15.142,6.95c0.357,0.167,0.756,0.254,1.153,0.254c0.429,0,0.858-0.102,1.241-0.294l11.684-5.868c1.133-0.544,1.756-1.969,1.343-3.053c-0.356-0.931-1.228-1.532-2.222-1.532c-0.312,0-0.615,0.061-0.904,0.18l-9.829,4.041l-1.157-0.808l0.198-0.388c0.604-1.187,0.138-2.657-1.042-3.278l-9.539-5.015c-1.227-0.644-2.606-0.985-3.992-0.985c-1.021,0-2.025,0.18-2.984,0.536L1.5,23.04"/><path fill="none" stroke="#4788c7" stroke-linecap="round" d="M24.347,29.969L24.347,29.969c-0.53,0.914-1.682,1.256-2.625,0.779l-6.125-3.095"/></svg>