<svg xmlns="http://www.w3.org/2000/svg" viewBox="0 0 40 40"><path fill="#dff0fe" d="M1.5,38.5V14c0-1.378,1.122-2.5,2.5-2.5h32c1.378,0,2.5,1.122,2.5,2.5v24.5H1.5z"/><path fill="#4788c7" d="M36,12c1.103,0,2,0.897,2,2v24H2V14c0-1.103,0.897-2,2-2H36 M36,11H4c-1.657,0-3,1.343-3,3v25h38V14C39,12.343,37.657,11,36,11L36,11z"/><path fill="#98ccfd" d="M6.5 22.5H33.5V26.5H6.5z"/><path fill="#98ccfd" d="M33 23v3H7v-3H33M34 22H6v5h28V22L34 22zM6.5 31.5H9.5V34.5H6.5z"/><path fill="#98ccfd" d="M9 32v2H7v-2H9M10 31H6v4h4V31L10 31zM12.5 31.5H15.5V34.5H12.5z"/><path fill="#98ccfd" d="M15 32v2h-2v-2H15M16 31h-4v4h4V31L16 31zM18.5 31.5H21.5V34.5H18.5z"/><path fill="#98ccfd" d="M21 32v2h-2v-2H21M22 31h-4v4h4V31L22 31zM24.5 31.5H27.5V34.5H24.5z"/><path fill="#98ccfd" d="M27,32v2h-2v-2H27 M28,31h-4v4h4V31L28,31z"/><path fill="#b6dcfe" d="M30.5 31.5H33.5V34.5H30.5z"/><path fill="#b6dcfe" d="M33,32v2h-2v-2H33 M34,31h-4v4h4V31L34,31z"/><path fill="#4788c7" d="M33,16H7c-0.552,0-1,0.448-1,1l0,0c0,0.552,0.448,1,1,1h26c0.552,0,1-0.448,1-1l0,0C34,16.448,33.552,16,33,16z"/><path fill="#fff" d="M9.5 1.5H30.5V17.5H9.5z"/><path fill="#4788c7" d="M30,2v15H10V2H30 M31,1H9c0,0.953,0,17,0,17h22C31,18,31,1.953,31,1L31,1z"/><path fill="none" stroke="#4788c7" stroke-linecap="round" d="M14.5 5.5L25.5 5.5M14.5 9.5L25.5 9.5"/></svg>