<svg xmlns="http://www.w3.org/2000/svg" viewBox="0 0 40 40"><path fill="#dff0fe" d="M32,30.5c-2.623,0-5-1.614-5.997-4h11.994C37,28.886,34.623,30.5,32,30.5z"/><path fill="#4788c7" d="M37.192,27c-1.057,1.816-3.034,3-5.192,3s-4.135-1.184-5.192-3H37.192 M38.706,26H25.294 c0.861,2.891,3.536,5,6.706,5S37.845,28.891,38.706,26L38.706,26z"/><path fill="#4788c7" d="M32,9.145l5.653,16.859C36.813,28.372,34.531,30,32,30s-4.813-1.628-5.653-3.995L32,9.145 M32,6 l-6.706,20c0.861,2.891,3.536,5,6.706,5s5.845-2.109,6.706-5L32,6L32,6z"/><path fill="#dff0fe" d="M8,30.5c-2.623,0-5-1.614-5.997-4h11.994C13,28.886,10.623,30.5,8,30.5z"/><path fill="#4788c7" d="M13.192,27c-1.057,1.816-3.034,3-5.192,3s-4.135-1.184-5.192-3H13.192 M14.706,26H1.294 C2.155,28.891,4.83,31,8,31S13.845,28.891,14.706,26L14.706,26z"/><path fill="#4788c7" d="M8,9.145l5.653,16.859C12.813,28.372,10.531,30,8,30s-4.813-1.628-5.653-3.995L8,9.145 M8,6 L1.294,26C2.155,28.891,4.83,31,8,31s5.845-2.109,6.706-5L8,6L8,6z"/><path fill="none" stroke="#4788c7" d="M31.963,8.333C28.372,4.743,22.867,4.763,20,7.63"/><path fill="#4788c7" d="M32 6A2 2 0 1 0 32 10A2 2 0 1 0 32 6Z"/><path fill="none" stroke="#4788c7" d="M8.037,8.333C11.628,4.743,17.133,4.763,20,7.63"/><path fill="#4788c7" d="M22,4c0,1.105-0.895,2-2,2s-2-0.895-2-2s1.438-2.469,2-3C20.5,1.484,22,2.895,22,4z"/><path fill="#b6dcfe" d="M18.5 7.5H21.5V34.5H18.5z"/><path fill="#4788c7" d="M21,8v26h-2V8H21 M22,7h-4v28h4V7L22,7z"/><g><path fill="#b6dcfe" d="M12.5,38.5V37c0-0.827,0.673-1.5,1.5-1.5h2.5V35c0-1.93,1.57-3.5,3.5-3.5s3.5,1.57,3.5,3.5v0.5H26 c0.827,0,1.5,0.673,1.5,1.5v1.5H12.5z"/><path fill="#4788c7" d="M20,32c1.654,0,3,1.346,3,3v1h1h2c0.551,0,1,0.449,1,1v1H13v-1c0-0.551,0.449-1,1-1h2h1v-1 C17,33.346,18.346,32,20,32 M20,31c-2.2,0-4,1.8-4,4h-2c-1.1,0-2,0.9-2,2v2h16v-2c0-1.1-0.9-2-2-2h-2C24,32.8,22.2,31,20,31L20,31z"/></g><g><path fill="#b6dcfe" d="M20 5.5A2.5 2.5 0 1 0 20 10.5A2.5 2.5 0 1 0 20 5.5Z"/><path fill="#4788c7" d="M20,6c1.103,0,2,0.897,2,2s-0.897,2-2,2s-2-0.897-2-2S18.897,6,20,6 M20,5c-1.657,0-3,1.343-3,3 s1.343,3,3,3s3-1.343,3-3S21.657,5,20,5L20,5z"/></g><g><path fill="#4788c7" d="M8 6A2 2 0 1 0 8 10A2 2 0 1 0 8 6Z"/></g></svg>