<svg xmlns="http://www.w3.org/2000/svg" viewBox="0 0 40 40"><path fill="#dff0fe" d="M24.421,38.509c-0.602,0-1.186-0.124-1.735-0.37L7.921,31.557L1.5,34.126v-9.972l5.758-2.138 c0.907-0.337,1.857-0.508,2.824-0.508c1.311,0,2.616,0.322,3.776,0.933l9.95,5.233c1.205,0.634,1.682,2.135,1.064,3.347 l-0.198,0.389l1.161,0.81l9.343-3.553c0.284-0.111,0.575-0.167,0.868-0.167c1.305,0,2.367,1.064,2.367,2.372 c0,0.907-0.529,1.746-1.347,2.137l-10.794,5.078C25.695,38.363,25.056,38.509,24.421,38.509L24.421,38.509z"/><path fill="#4788c7" d="M10.082,22.009c1.23,0,2.455,0.303,3.544,0.875l9.95,5.233c0.964,0.507,1.345,1.708,0.851,2.678 l-0.396,0.776l0.715,0.498l0.587,0.409l0.433,0.302l0.494-0.188l9.104-3.463C35.586,29.044,35.816,29,36.046,29 c1.029,0,1.866,0.84,1.866,1.872c0,0.716-0.417,1.378-1.057,1.684l-10.805,5.082c-0.505,0.243-1.069,0.371-1.63,0.371 c-0.531,0-1.047-0.11-1.532-0.326L8.318,31.186l-0.386-0.172l-0.392,0.157L2,33.387v-8.885l5.432-2.017 C8.283,22.169,9.174,22.009,10.082,22.009L10.082,22.009 M10.082,21.009c-1.013,0-2.028,0.179-2.998,0.539L1,23.807v11.057 L7.911,32.1l14.571,6.496c0.618,0.275,1.279,0.413,1.939,0.413c0.706,0,1.411-0.157,2.063-0.47l10.798-5.079 c0.997-0.477,1.631-1.483,1.631-2.588c0-1.646-1.349-2.872-2.866-2.872c-0.345,0-0.698,0.063-1.046,0.199l-9.096,3.459 l-0.587-0.409c0.746-1.463,0.177-3.253-1.276-4.017l-9.95-5.233C12.841,21.341,11.464,21.009,10.082,21.009L10.082,21.009z"/><path fill="none" stroke="#4788c7" stroke-linecap="round" d="M15.776,29.017l6.232,3.15 c0.96,0.485,2.131,0.137,2.67-0.794v0"/><path fill="#b6dcfe" d="M15.5 1.5H36.5V19.5H15.5z"/><path fill="#4788c7" d="M36,2v17H16V2H36 M37,1H15v19h22V1L37,1z"/><path fill="none" stroke="#4788c7" stroke-linecap="round" stroke-linejoin="round" stroke-width="2" d="M23.5 5L28.5 5"/></svg>