<svg xmlns="http://www.w3.org/2000/svg" viewBox="0 0 40 40"><path fill="#fff" d="M2.5 11H37.5V38.5H2.5z"/><path fill="#4788c7" d="M37,11.5V38H3V11.5H37 M38,10.5H2V39h36V10.5L38,10.5z"/><path fill="#b6dcfe" d="M21.5 21.5H32.5V38.5H21.5z"/><path fill="#4788c7" d="M32,22v16H22V22H32 M33,21H21v18h12V21L33,21z"/><path fill="#b6dcfe" d="M7.5 21.5H16.5V29.5H7.5z"/><path fill="#4788c7" d="M16,22v7H8v-7H16 M17,21H7v9h10V21L17,21z"/><path fill="#b6dcfe" d="M36,18.5c-1.93,0-3.5-1.57-3.5-3.5c0-0.276-0.224-0.5-0.5-0.5s-0.5,0.224-0.5,0.5 c0,1.93-1.57,3.5-3.5,3.5s-3.5-1.57-3.5-3.5c0-0.276-0.224-0.5-0.5-0.5s-0.5,0.224-0.5,0.5c0,1.93-1.57,3.5-3.5,3.5 s-3.5-1.57-3.5-3.5c0-0.276-0.224-0.5-0.5-0.5s-0.5,0.224-0.5,0.5c0,1.93-1.57,3.5-3.5,3.5S8.5,16.93,8.5,15 c0-0.276-0.224-0.5-0.5-0.5S7.5,14.724,7.5,15c0,1.93-1.57,3.5-3.5,3.5c-0.114,0-0.229-0.005-0.345-0.016 C1.886,18.314,0.5,16.709,0.5,14.828v-3.702l2.94-5.462C3.479,5.591,3.5,5.51,3.5,5.427V3c0-0.827,0.673-1.5,1.5-1.5h30 c0.827,0,1.5,0.673,1.5,1.5v2.427c0,0.083,0.021,0.164,0.06,0.237l2.94,5.462v3.702c0,1.881-1.386,3.486-3.155,3.656 C36.229,18.495,36.114,18.5,36,18.5z"/><path fill="#4788c7" d="M35,2c0.551,0,1,0.449,1,1v2.427c0,0.165,0.041,0.328,0.119,0.474L39,11.252v3.576 c0,1.626-1.187,3.013-2.702,3.158C36.198,17.995,36.098,18,36,18c-1.654,0-3-1.346-3-3c0-0.552-0.448-1-1-1s-1,0.448-1,1 c0,1.654-1.346,3-3,3s-3-1.346-3-3c0-0.552-0.448-1-1-1s-1,0.448-1,1c0,1.654-1.346,3-3,3s-3-1.346-3-3c0-0.552-0.448-1-1-1 s-1,0.448-1,1c0,1.654-1.346,3-3,3s-3-1.346-3-3c0-0.552-0.448-1-1-1s-1,0.448-1,1c0,1.654-1.346,3-3,3 c-0.098,0-0.198-0.005-0.298-0.014C2.187,17.841,1,16.454,1,14.828v-3.576l2.881-5.351C3.959,5.756,4,5.593,4,5.427V3 c0-0.551,0.449-1,1-1H35 M35,1H5C3.895,1,3,1.895,3,3v2.427L0,11v3.828c0,2.089,1.527,3.955,3.607,4.153 C3.739,18.994,3.871,19,4,19c2.209,0,4-1.791,4-4c0,2.209,1.791,4,4,4s4-1.791,4-4c0,2.209,1.791,4,4,4s4-1.791,4-4 c0,2.209,1.791,4,4,4s4-1.791,4-4c0,2.209,1.791,4,4,4c0.13,0,0.261-0.006,0.393-0.019C38.473,18.783,40,16.917,40,14.828V11 l-3-5.573V3C37,1.895,36.105,1,35,1L35,1z"/><path fill="#4788c7" d="M3 5H37V6H3z"/><path fill="#dff0fe" d="M1.136 11L38.864 11 36.173 6 3.827 6z"/><path fill="#4788c7" d="M0 11H40V12H0zM29.5 29A1 1 0 1 0 29.5 31 1 1 0 1 0 29.5 29z"/></svg>