<svg xmlns="http://www.w3.org/2000/svg" viewBox="0 0 40 40"><path fill="#dff0fe" stroke="#4788c7" d="M5.5 5.5A1 1 0 1 0 5.5 7.5A1 1 0 1 0 5.5 5.5Z"/><path fill="#dff0fe" stroke="#4788c7" d="M5.5 5.5A1 1 0 1 0 5.5 7.5A1 1 0 1 0 5.5 5.5Z"/><path fill="none" stroke="#4788c7" stroke-linecap="round" d="M10.5 6.5L25.5 6.5M29.5 6.5L30.5 6.5M34.5 6.5L35.5 6.5M10.5 15.5L25.5 15.5M34.5 15.5L35.5 15.5M10.5 24.5L25.5 24.5M29.5 24.5L30.5 24.5M34.5 24.5L35.5 24.5M10.5 33.5L25.5 33.5M34.5 33.5L35.5 33.5"/><path fill="#dff0fe" stroke="#4788c7" d="M5.5 14.5A1 1 0 1 0 5.5 16.5A1 1 0 1 0 5.5 14.5Z"/><path fill="#dff0fe" stroke="#4788c7" d="M5.5 14.5A1 1 0 1 0 5.5 16.5 1 1 0 1 0 5.5 14.5zM5.5 23.5A1 1 0 1 0 5.5 25.5 1 1 0 1 0 5.5 23.5z"/><path fill="#dff0fe" stroke="#4788c7" d="M5.5 23.5A1 1 0 1 0 5.5 25.5 1 1 0 1 0 5.5 23.5zM5.5 32.5A1 1 0 1 0 5.5 34.5 1 1 0 1 0 5.5 32.5z"/><path fill="#dff0fe" stroke="#4788c7" d="M5.5 32.5A1 1 0 1 0 5.5 34.5A1 1 0 1 0 5.5 32.5Z"/></svg>