<svg xmlns="http://www.w3.org/2000/svg" viewBox="0 0 40 40"><path fill="none" stroke="#4788c7" d="M40,33.5H8.5c-1.657,0-3-1.343-3-3v-20c0-1.657-1.343-3-3-3H2"/><path fill="#98ccfd" d="M13.5 34.5A2 2 0 1 0 13.5 38.5A2 2 0 1 0 13.5 34.5Z"/><path fill="#4788c7" d="M13.5,35c0.827,0,1.5,0.673,1.5,1.5S14.327,38,13.5,38S12,37.327,12,36.5S12.673,35,13.5,35 M13.5,34c-1.381,0-2.5,1.119-2.5,2.5s1.119,2.5,2.5,2.5s2.5-1.119,2.5-2.5S14.881,34,13.5,34L13.5,34z"/><path fill="#98ccfd" d="M36.5 34.5A2 2 0 1 0 36.5 38.5A2 2 0 1 0 36.5 34.5Z"/><path fill="#4788c7" d="M36.5,35c0.827,0,1.5,0.673,1.5,1.5S37.327,38,36.5,38S35,37.327,35,36.5S35.673,35,36.5,35 M36.5,34c-1.381,0-2.5,1.119-2.5,2.5s1.119,2.5,2.5,2.5s2.5-1.119,2.5-2.5S37.881,34,36.5,34L36.5,34z"/><path fill="#98ccfd" d="M2 7.5A1.5 1.5 0 1 0 2 10.5A1.5 1.5 0 1 0 2 7.5Z"/><path fill="#4788c7" d="M2,8c0.551,0,1,0.449,1,1s-0.449,1-1,1S1,9.551,1,9S1.449,8,2,8 M2,7C0.895,7,0,7.895,0,9 s0.895,2,2,2s2-0.895,2-2S3.105,7,2,7L2,7z"/><path fill="#b6dcfe" d="M10.5 30.5H39.5V33.5H10.5z"/><path fill="#4788c7" d="M39,31v2H11v-2H39 M40,30H10v4h30V30L40,30z"/><g><path fill="#dff0fe" d="M14.5 16.5H35.5V30.5H14.5z"/><path fill="#4788c7" d="M35,17v13H15V17H35 M36,16H14v15h22V16L36,16z"/></g><g><path fill="#dff0fe" d="M14.5 2.5H35.5V16.5H14.5z"/><path fill="#4788c7" d="M35,3v13H15V3H35 M36,2H14v15h22V2L36,2z"/></g><path fill="none" stroke="#4788c7" stroke-linecap="round" stroke-linejoin="round" d="M22.5 5.5L27.5 5.5M22.5 19.5L27.5 19.5"/></svg>