<svg xmlns="http://www.w3.org/2000/svg" viewBox="0 0 40 40"><path fill="#b6dcfe" d="M6,13.5v-1H5.5c-2.206,0-4-1.794-4-4s1.794-4,4-4h27v9H6z"/><path fill="#4788c7" d="M32,5v8H6.5v-1h-1C3.57,12,2,10.43,2,8.5S3.57,5,5.5,5H32 M33,4H5.5C3.015,4,1,6.015,1,8.5S3.015,13,5.5,13v1H33V4L33,4z"/><path fill="#98ccfd" d="M5.5 8H35.5V31.5H5.5z"/><path fill="#4788c7" d="M35,8v23H6V8H35 M36,7H5v25h31V7L36,7z"/><path fill="#fff" d="M6,28V10h11c4.963,0,9,4.038,9,9s-4.037,9-9,9H6z"/><path fill="#dff0fe" d="M6,35.5c-2.481,0-4.5-2.019-4.5-4.5V9h0.031c0.247,1.97,1.933,3.5,3.969,3.5h27v23H6z"/><path fill="#4788c7" d="M2,11.325C2.826,12.346,4.088,13,5.5,13H32v22H6c-2.206,0-4-1.794-4-4V16v-4V11.325 M2,8.5H1V12v4v15c0,2.761,2.239,5,5,5h27V12H5.5C3.567,12,2,10.433,2,8.5L2,8.5z"/><path fill="#dff0fe" d="M25.5 20.5H38.5V27.5H25.5z"/><path fill="#4788c7" d="M38,21v6H26v-6H38 M39,20H25v8h14V20L39,20z"/><path fill="#4788c7" d="M30 23A1 1 0 1 0 30 25A1 1 0 1 0 30 23Z"/></svg>