<svg xmlns="http://www.w3.org/2000/svg" viewBox="0 0 40 40"><path fill="#98ccfd" d="M13.645,26.938C15.392,25.362,17.63,24.5,20,24.5s4.608,0.862,6.355,2.438L20,33.293 L13.645,26.938z"/><path fill="#4788c7" d="M20,25c2.067,0,4.028,0.692,5.618,1.968L20,32.586l-5.618-5.618C15.972,25.692,17.933,25,20,25 M20,24c-2.761,0-5.261,1.119-7.071,2.929L20,34l7.071-7.071C25.261,25.119,22.761,24,20,24L20,24z"/><path fill="#98ccfd" d="M7.277,20.57C10.727,17.297,15.226,15.5,20,15.5s9.272,1.796,12.724,5.069l-2.83,2.83 C27.199,20.881,23.706,19.5,20,19.5s-7.199,1.381-9.894,3.899L7.277,20.57z"/><path fill="#4788c7" d="M20,16c4.473,0,8.697,1.621,12.002,4.584l-2.125,2.125C27.142,20.31,23.672,19,20,19 s-7.142,1.31-9.876,3.709l-2.125-2.125C11.303,17.621,15.527,16,20,16 M20,15c-5.247,0-9.997,2.127-13.435,5.565l3.536,3.536 C12.634,21.567,16.134,20,20,20c3.866,0,7.366,1.567,9.899,4.101l3.536-3.536C29.997,17.127,25.247,15,20,15L20,15z"/><g><path fill="#98ccfd" d="M36.26,17.033C31.864,12.816,26.11,10.5,20,10.5S8.136,12.816,3.74,17.033l-2.829-2.829 C6.062,9.231,12.82,6.5,20,6.5s13.938,2.731,19.089,7.704L36.26,17.033z"/><path fill="#4788c7" d="M20,7c6.878,0,13.363,2.554,18.372,7.214l-2.123,2.123C31.808,12.243,26.076,10,20,10 S8.192,12.243,3.751,16.337l-2.123-2.123C6.637,9.554,13.122,7,20,7 M20,6C12.268,6,5.268,9.134,0.201,14.201l3.536,3.536 C7.899,13.574,13.649,11,20,11c6.351,0,12.101,2.574,16.263,6.737l3.536-3.536C34.732,9.134,27.732,6,20,6L20,6z"/></g></svg>